<?xml version="1.0" standalone="no"?>
<!DOCTYPE svg PUBLIC "-//W3C//DTD SVG 20010904//EN"
 "http://www.w3.org/TR/2001/REC-SVG-20010904/DTD/svg10.dtd">
<svg version="1.0" xmlns="http://www.w3.org/2000/svg"
 width="1600.000000pt" height="1200.000000pt" viewBox="0 0 1600.000000 1200.000000"
 preserveAspectRatio="xMidYMid meet">

<g transform="translate(0.000000,1200.000000) scale(0.100000,-0.100000)"
fill="#000000" stroke="none">
<path d="M0 6000 l0 -6000 5449 0 c3791 0 5452 3 5456 10 5 8 11 7 21 -1 8 -7
27 -9 46 -5 18 3 38 7 45 8 8 1 10 12 6 30 -5 27 -4 29 20 23 14 -4 28 -2 31
4 4 6 -1 11 -11 11 -11 0 -24 5 -30 11 -6 6 -21 9 -34 7 -18 -2 -24 -9 -24
-28 0 -27 -4 -30 -36 -30 -12 0 -17 4 -14 11 4 6 13 8 21 5 17 -7 19 10 2 17
-10 4 -10 8 1 15 11 8 9 11 -8 17 -23 7 -28 21 -8 28 6 3 -3 10 -20 17 -34 12
-41 24 -23 35 18 11 11 23 -22 34 -17 6 -40 19 -50 28 -19 17 -25 53 -8 53 6
0 10 5 10 10 0 6 -7 10 -15 10 -9 0 -12 6 -8 16 4 10 -1 17 -16 21 -25 6 -24
5 -10 36 11 25 -1 55 -43 101 -11 12 -15 28 -12 45 5 22 1 29 -21 39 -14 7
-32 12 -39 12 -8 0 -16 6 -19 14 -5 12 0 12 26 5 44 -13 57 -11 57 5 0 9 -12
16 -31 18 -28 3 -32 7 -35 36 -3 28 -1 32 21 32 14 0 25 5 25 10 0 6 -4 10
-10 10 -5 0 -10 6 -10 14 0 8 -12 25 -27 38 -21 17 -27 30 -25 51 2 15 -1 27
-7 27 -6 0 -11 -11 -11 -25 0 -14 -4 -25 -10 -25 -11 0 -12 15 -4 47 4 13 11
20 20 16 19 -7 18 12 -2 32 -12 11 -13 19 -5 29 6 7 8 16 5 19 -3 3 5 21 19
39 16 20 23 39 18 46 -5 9 -14 1 -27 -25 -10 -21 -24 -42 -30 -48 -6 -5 -16
-19 -22 -30 -9 -16 -10 -13 -9 17 0 20 5 34 10 31 5 -3 7 0 5 8 -3 8 -11 13
-17 12 -18 -5 -13 15 10 36 18 16 19 22 8 39 -11 18 -10 24 5 41 13 14 15 24
9 36 -6 11 -6 32 1 57 9 34 8 42 -7 53 -10 7 -17 25 -17 44 0 31 14 43 23 19
2 -7 8 -10 12 -6 5 5 3 32 -4 60 -18 81 -21 161 -6 178 7 8 15 28 19 43 6 24
3 30 -14 34 -11 3 -20 7 -20 9 0 3 13 44 29 92 29 88 42 115 75 164 22 34 18
112 -12 209 l-20 67 96 1 c53 1 98 4 101 6 2 3 -41 5 -97 5 l-101 0 -10 38
c-5 20 -17 71 -26 112 -30 131 -66 285 -70 298 -2 6 0 12 5 12 6 0 10 -9 10
-20 0 -11 5 -20 10 -20 6 0 10 -13 10 -28 0 -26 2 -28 35 -24 39 5 43 25 7 30
-26 4 -28 15 -7 32 8 6 17 21 21 33 4 11 16 28 27 38 16 13 21 27 20 68 -1 47
1 51 23 51 13 0 24 4 24 8 0 5 -15 7 -32 5 -30 -3 -31 -2 -10 7 13 5 20 14 17
20 -3 5 0 10 7 11 7 0 4 4 -7 9 -17 7 -17 9 -2 9 13 1 17 10 17 44 0 40 3 46
34 62 29 16 32 21 23 37 -10 16 -9 21 5 29 10 6 18 15 18 22 0 7 9 23 20 37
11 14 20 35 20 46 0 32 75 108 100 101 11 -3 20 -1 20 4 0 5 -4 9 -10 9 -5 0
-10 5 -10 10 0 6 22 10 48 10 26 0 53 5 60 12 15 15 105 15 110 0 2 -7 18 -12
35 -12 17 0 38 -7 48 -16 10 -9 28 -16 41 -15 41 1 52 0 141 -5 65 -5 90 -10
94 -21 3 -8 1 -18 -5 -22 -6 -4 29 -15 78 -25 75 -15 90 -21 90 -37 0 -12 7
-19 19 -19 11 0 23 -4 26 -10 3 -5 14 -10 23 -10 9 0 44 -14 76 -30 32 -17 67
-30 77 -30 10 0 21 -4 24 -10 3 -5 -3 -10 -15 -10 -16 0 -20 -6 -18 -30 1 -17
8 -30 15 -30 7 0 13 -7 13 -15 0 -15 45 -65 60 -65 5 0 12 -9 15 -20 4 -14 19
-22 47 -27 23 -3 50 -15 60 -27 30 -33 31 -35 64 -61 18 -14 39 -25 48 -25 9
0 25 -8 37 -18 11 -9 33 -27 47 -39 15 -13 30 -23 33 -23 4 0 9 -9 12 -20 3
-14 14 -20 31 -20 21 0 26 -5 26 -25 0 -14 -5 -25 -11 -25 -6 0 10 -16 35 -35
26 -19 52 -35 59 -35 14 0 37 -20 37 -32 0 -4 -9 -8 -20 -8 -20 0 -19 -3 9
-44 17 -24 44 -56 60 -72 22 -20 27 -31 20 -41 -6 -6 -8 -21 -4 -32 5 -17 -2
-35 -31 -79 -1 -2 -11 1 -23 7 -24 13 -37 -1 -18 -21 26 -28 48 -69 41 -80 -4
-6 -3 -8 4 -5 7 5 8 -6 5 -33 -4 -26 -2 -40 6 -40 6 0 11 -11 11 -23 0 -13 9
-32 20 -42 24 -21 18 -35 -16 -35 -13 0 -24 -4 -24 -10 0 -5 7 -10 15 -10 18
0 19 -12 3 -28 -9 -9 -7 -12 9 -12 34 0 44 -47 16 -75 -15 -16 -15 -19 2 -48
13 -21 15 -32 7 -35 -19 -6 -14 -30 8 -37 24 -7 27 -45 4 -45 -8 0 -12 -5 -9
-10 4 -6 7 -42 7 -80 0 -64 9 -89 21 -57 3 6 4 -4 3 -24 0 -21 -5 -35 -12 -32
-23 9 -45 -35 -50 -99 -3 -55 -1 -68 17 -86 l20 -22 -33 -1 c-18 0 -26 -3 -18
-6 8 -3 23 -12 32 -20 21 -18 38 -9 39 20 1 20 2 20 9 -3 15 -47 13 -51 -25
-44 -23 4 -35 2 -35 -5 0 -6 6 -11 13 -11 7 -1 5 -6 -5 -14 -21 -16 -24 -48
-4 -40 7 3 18 16 24 30 17 37 42 31 42 -11 0 -19 6 -38 14 -42 12 -7 10 -13
-10 -36 l-24 -28 -9 23 c-9 21 -10 21 -10 2 -1 -11 4 -25 10 -31 9 -9 8 -16
-4 -27 -9 -9 -20 -16 -26 -16 -23 0 -9 -28 22 -44 17 -8 26 -16 20 -16 -15 0
-17 -46 -3 -55 16 -10 12 -24 -15 -47 -14 -12 -25 -29 -25 -38 0 -21 -34 -53
-45 -43 -4 5 -5 -6 -2 -24 7 -36 -6 -51 -28 -33 -12 10 -15 9 -15 -9 0 -11 5
-21 11 -21 15 0 7 -42 -11 -51 -8 -4 -24 -11 -35 -14 -15 -6 -17 -8 -5 -12 46
-14 46 -14 26 -29 -19 -14 -19 -14 2 -14 15 0 24 -8 28 -25 9 -37 -1 -54 -27
-48 -15 4 -20 3 -15 -5 4 -7 1 -12 -8 -12 -19 0 -22 -26 -4 -32 8 -3 2 -15
-15 -33 -23 -25 -26 -36 -22 -75 8 -71 5 -165 -6 -168 -5 -2 -6 -15 -3 -28 5
-19 2 -24 -14 -24 -27 0 -52 -10 -52 -21 0 -5 759 -9 1820 -9 l1820 0 0 6000
0 6000 -1442 0 -1441 0 7 -120 c5 -95 4 -119 -6 -116 -7 1 -10 1 -5 -1 4 -3 7
-21 7 -40 0 -29 8 -44 41 -77 23 -22 37 -42 30 -44 -21 -7 -11 -22 14 -22 33
0 32 -16 -6 -47 -17 -14 -26 -29 -21 -32 15 -10 -36 -80 -74 -103 -19 -11 -34
-24 -34 -29 0 -5 -7 -9 -15 -9 -12 0 -15 -20 -15 -120 0 -100 3 -120 15 -120
8 0 15 -4 15 -9 0 -5 -7 -14 -15 -21 -10 -8 -15 -31 -15 -71 0 -57 -1 -59 -26
-59 l-26 0 7 -80 7 -80 -29 0 c-16 0 -34 -5 -39 -10 -6 -6 -48 -23 -95 -39
-125 -43 -251 -89 -274 -101 -19 -10 -106 -14 -228 -10 -35 1 -64 -4 -73 -11
-13 -10 -17 -10 -24 1 -9 15 -135 8 -219 -11 -26 -6 -76 -11 -113 -10 -38 0
-68 -3 -68 -7 0 -10 -170 -29 -230 -26 -25 2 -112 6 -195 9 -193 8 -197 9
-185 39 7 21 3 29 -33 60 -29 25 -51 36 -73 36 -41 0 -181 26 -216 41 -26 10
-27 14 -22 58 3 25 7 52 10 59 2 8 -4 10 -20 6 -18 -4 -25 -1 -29 15 -4 17
-13 20 -44 20 -63 -2 -158 10 -161 21 -2 6 -12 10 -22 10 -9 0 -23 6 -29 14
-16 20 -80 48 -115 53 -17 2 -35 8 -40 13 -6 6 -22 10 -37 10 -25 0 -26 3 -33
61 -9 90 -8 99 11 99 9 0 34 18 55 40 34 35 45 40 84 40 31 0 44 4 44 14 0 10
21 16 76 21 48 4 83 13 95 23 11 10 32 20 47 23 22 6 20 7 -15 8 -24 0 -43 6
-43 11 0 6 -18 10 -40 10 -36 0 -40 3 -40 25 0 14 5 25 10 25 15 0 59 52 60
70 1 12 2 12 10 -1 5 -9 25 -20 45 -23 36 -7 65 -37 65 -68 0 -10 11 -24 25
-30 13 -6 27 -20 31 -31 5 -17 12 -18 48 -12 22 4 68 11 101 15 33 5 92 14
130 20 161 25 574 74 578 69 71 -101 137 -211 137 -227 0 -24 24 -20 -355 -58
-148 -15 -274 -30 -278 -34 -14 -12 73 -111 110 -126 27 -12 34 -20 30 -35 -3
-10 -2 -21 3 -24 4 -2 45 0 91 5 350 40 485 54 558 59 54 4 86 10 89 19 2 7
-6 12 -20 12 -12 0 -30 5 -38 10 -13 8 -13 13 -2 30 11 18 9 28 -18 73 -59 98
-110 166 -129 172 -16 5 -20 17 -23 65 -2 34 1 62 7 64 6 3 -1 13 -14 24 -13
11 -21 24 -17 31 4 6 3 11 -3 11 -24 0 -100 93 -108 133 -3 15 -11 27 -19 27
-7 0 -26 17 -41 38 -15 20 -36 43 -45 50 -16 12 -58 94 -58 114 0 5 -11 21
-25 36 -14 15 -25 35 -25 45 0 10 -4 16 -9 13 -5 -3 -22 1 -37 9 -25 13 -744
14 -5766 15 l-5738 0 0 -6000z m7600 5733 c0 -5 18 -19 40 -33 29 -17 40 -31
40 -48 0 -23 3 -24 40 -18 31 5 40 3 40 -8 0 -16 21 -26 56 -26 14 0 24 -6 24
-14 0 -7 7 -26 15 -42 13 -25 13 -30 0 -44 -8 -9 -15 -24 -15 -33 0 -13 -10
-17 -42 -19 -36 -1 -38 -2 -12 -5 21 -3 34 -11 37 -24 3 -12 11 -17 21 -13 10
4 17 -2 22 -20 3 -14 10 -26 15 -26 5 0 9 -20 9 -45 0 -28 5 -47 14 -52 28
-15 26 -179 -2 -209 -15 -16 -17 -25 -9 -56 8 -32 13 -38 37 -38 19 0 29 -6
33 -19 3 -11 17 -22 35 -26 17 -3 33 -13 36 -21 3 -8 15 -14 26 -14 18 0 20
-6 20 -60 l0 -60 -38 0 c-26 0 -45 -7 -57 -20 -10 -11 -24 -20 -32 -20 -11 0
-14 -11 -12 -45 2 -25 -2 -50 -9 -57 -7 -7 -12 -22 -12 -35 0 -18 -6 -23 -24
-23 -13 0 -30 -7 -37 -16 -12 -14 -14 -14 -21 3 -5 11 -7 0 -6 -31 2 -47 1
-50 -32 -65 -19 -9 -42 -24 -51 -33 -9 -10 -24 -18 -33 -18 -12 0 -16 -10 -16
-44 0 -39 3 -45 30 -56 33 -14 35 -18 16 -42 -18 -24 -59 -38 -114 -38 -26 0
-96 -7 -157 -16 -115 -16 -261 -32 -355 -40 -238 -19 -320 -28 -355 -40 -29
-10 -71 -12 -155 -9 -63 3 -126 5 -140 3 -51 -5 -176 -2 -202 5 -29 8 -39 27
-15 27 8 0 19 11 25 25 10 21 8 26 -16 44 -15 11 -43 21 -62 23 l-34 3 36 38
c19 20 44 37 56 37 11 0 22 8 25 20 4 14 14 20 35 20 40 0 62 9 62 26 0 8 5
14 10 14 6 0 10 -7 10 -16 0 -13 3 -14 15 -4 8 7 12 16 9 22 -3 5 8 14 25 21
17 6 31 16 31 22 0 18 56 32 109 27 43 -4 51 -2 51 12 0 10 14 31 30 48 17 16
28 33 25 37 -2 5 -31 18 -64 30 -33 12 -63 26 -65 30 -7 10 67 91 82 91 21 0
14 15 -41 93 -24 34 -9 67 31 67 23 0 30 7 40 33 7 18 12 40 12 48 0 19 24 39
76 63 33 16 40 24 36 43 -3 18 -11 23 -35 23 -17 0 -48 8 -68 18 -35 15 -39
21 -39 55 0 35 2 37 32 37 24 0 40 10 74 46 23 26 47 43 53 40 18 -11 61 24
61 50 0 21 5 24 43 25 23 1 32 4 20 6 -12 2 -25 13 -28 23 -3 10 -12 21 -20
24 -8 3 -15 15 -15 26 0 16 6 20 33 20 17 0 52 -6 77 -14 64 -19 210 -31 210
-17 0 6 17 11 40 11 36 0 40 3 40 25 0 23 -4 25 -40 25 -29 0 -40 4 -40 15 0
12 16 15 80 15 73 0 80 2 80 20 0 11 2 20 4 20 12 0 72 -25 77 -32 6 -9 71 20
77 35 2 4 20 7 40 7 41 0 76 18 55 27 -7 2 -13 12 -13 21 -1 26 -36 62 -59 62
-32 0 -27 36 7 48 34 13 52 14 52 5z m-746 -249 c22 -9 20 -24 -3 -24 -21 0
-34 13 -24 24 8 7 8 7 27 0z m-2394 -899 c0 -14 -4 -25 -9 -25 -4 0 -6 11 -3
25 2 14 6 25 8 25 2 0 4 -11 4 -25z m135 -15 c13 -6 15 -9 5 -9 -8 0 -22 4
-30 9 -18 12 -2 12 25 0z m40 -51 c79 -25 94 -24 64 2 l-24 22 25 -6 c14 -3
54 -16 90 -29 60 -21 65 -25 62 -50 -3 -27 -25 -38 -37 -18 -3 6 -15 10 -26
10 -10 0 -27 4 -37 9 -28 14 -156 60 -189 68 -13 3 -23 10 -23 15 0 6 8 7 18
3 9 -4 44 -16 77 -26z m4705 -69 c0 -4 -7 -10 -15 -14 -11 -4 -14 -13 -9 -31
5 -21 3 -25 -15 -25 -12 0 -21 -6 -21 -15 0 -17 -60 -36 -90 -28 -11 3 -20 0
-20 -6 0 -6 -11 -11 -25 -11 -14 0 -25 4 -25 9 0 9 -49 20 -115 26 -47 4 -74
13 -97 33 -17 14 -17 16 0 28 23 18 67 17 95 0 15 -10 43 -14 87 -12 73 4 96
11 104 32 3 7 23 17 46 20 22 4 40 10 40 15 0 4 14 3 30 -2 17 -6 30 -15 30
-19z m-3100 -40 c0 -5 -18 -10 -40 -10 -22 0 -40 5 -40 10 0 6 18 10 40 10 22
0 40 -4 40 -10z m2125 -40 c3 -5 15 -10 25 -10 11 0 24 -9 30 -20 9 -16 8 -20
-5 -20 -8 0 -15 -7 -15 -15 0 -8 -7 -15 -16 -15 -8 0 -13 4 -9 9 3 5 -8 16
-24 24 -22 11 -31 12 -34 3 -2 -6 -8 -8 -12 -4 -11 10 22 58 40 58 7 0 17 -4
20 -10z m247 -32 c-2 -11 3 -18 13 -18 8 0 15 -7 15 -15 0 -12 -16 -15 -80
-15 l-80 0 0 29 c0 33 18 40 95 37 32 -1 39 -4 37 -18z m233 -9 c5 -5 -14 -9
-45 -9 -49 0 -52 1 -34 14 19 15 60 12 79 -5z m-2685 -64 c0 -22 -4 -25 -40
-25 -36 0 -40 3 -40 25 0 23 4 25 40 25 36 0 40 -2 40 -25z m1743 8 c-13 -2
-33 -2 -45 0 -13 2 -3 4 22 4 25 0 35 -2 23 -4z m7587 -197 c0 -8 11 -36 24
-63 13 -26 27 -64 31 -83 3 -19 14 -55 23 -80 11 -29 17 -76 17 -135 0 -93 -3
-115 -19 -127 -5 -3 -10 -31 -11 -62 -3 -58 -20 -95 -38 -77 -5 5 -6 22 -2 38
15 58 -5 240 -35 318 -5 11 -18 48 -30 83 -13 34 -27 65 -31 68 -14 8 -10 44
5 50 8 3 22 23 30 45 16 38 36 53 36 25z m-471 -42 c2 -2 -3 -4 -11 -4 -9 0
-26 9 -39 20 l-24 21 35 -17 c19 -9 37 -18 39 -20z m-13102 -191 c-2 -21 -4
-6 -4 32 0 39 2 55 4 38 2 -18 2 -50 0 -70z m10551 10 c-10 -2 -26 -2 -35 0
-10 3 -2 5 17 5 19 0 27 -2 18 -5z m-115 -10 c-13 -2 -35 -2 -50 0 -16 2 -5 4
22 4 28 0 40 -2 28 -4z m-275 -20 c-16 -2 -40 -2 -55 0 -16 2 -3 4 27 4 30 0
43 -2 28 -4z m-125 -10 c-13 -2 -35 -2 -50 0 -16 2 -5 4 22 4 28 0 40 -2 28
-4z m729 -65 c15 -12 16 -31 7 -183 -12 -222 -14 -229 -45 -243 -14 -7 -31
-12 -38 -12 -8 0 -16 -7 -20 -15 -4 -11 2 -15 27 -15 46 0 57 -15 59 -84 1
-50 2 -54 5 -18 3 26 8 40 15 36 7 -4 7 1 2 17 -10 31 -7 80 6 93 5 5 10 17
10 25 0 11 -3 12 -8 4 -20 -31 -3 279 18 316 5 10 13 -4 24 -41 18 -64 20 -94
6 -103 -5 -3 -10 -24 -10 -46 0 -21 -5 -39 -11 -39 -6 0 -10 -20 -8 -53 1 -29
-1 -58 -4 -64 -4 -7 1 -14 13 -18 21 -7 27 -21 10 -27 -6 -2 -6 -17 2 -40 8
-29 9 -47 0 -75 -8 -25 -8 -39 -1 -43 5 -4 7 -14 3 -23 -3 -9 -11 -14 -17 -10
-6 4 -8 0 -4 -11 4 -9 1 -19 -6 -22 -6 -2 -13 -19 -14 -37 -2 -25 0 -29 8 -17
8 11 9 7 6 -17 -3 -25 -1 -30 9 -22 9 7 14 0 18 -28 9 -61 11 -132 3 -139 -11
-11 -8 -74 3 -74 19 0 12 -146 -10 -202 -11 -29 -20 -59 -20 -65 0 -7 -9 -22
-20 -33 -12 -12 -20 -33 -20 -55 0 -40 -24 -95 -41 -95 -7 0 -9 12 -7 29 3 18
0 29 -6 28 -6 -1 -10 9 -8 23 2 19 0 21 -7 10 -10 -17 -18 -91 -27 -250 -17
-293 -24 -330 -60 -330 -8 0 -14 -4 -14 -9 0 -5 -8 -12 -17 -14 -13 -3 -12 -5
5 -6 13 0 33 -6 44 -12 19 -10 20 -17 14 -122 -4 -62 -14 -188 -22 -282 -8
-93 -19 -235 -24 -315 -5 -80 -13 -163 -18 -185 l-7 -40 -380 3 c-209 1 -418
6 -464 10 -82 7 -85 8 -94 37 -6 16 -18 38 -28 49 -11 11 -22 28 -25 39 -4 14
-12 17 -27 13 -12 -3 -28 -6 -34 -6 -7 0 -13 -9 -13 -21 0 -11 -5 -17 -10 -14
-6 3 -13 -2 -17 -12 -4 -10 -11 -21 -17 -25 -6 -4 -82 -8 -169 -8 -128 0 -162
3 -182 16 -15 10 -34 14 -49 10 -22 -5 -26 -2 -30 26 -3 18 -10 68 -17 111
-17 109 3 602 26 660 6 15 19 18 69 17 33 0 135 0 226 -1 101 0 169 -4 177
-11 7 -6 13 -32 13 -60 0 -52 24 -108 47 -108 6 0 17 -8 22 -17 6 -10 11 -13
11 -6 0 18 47 83 54 76 3 -4 6 1 6 10 0 8 -6 18 -12 20 -10 4 -10 7 0 15 7 5
10 15 7 23 -2 8 1 34 9 59 12 42 16 45 50 48 20 2 34 7 31 12 -3 5 -11 7 -18
4 -39 -14 -57 73 -44 213 3 39 1 50 -8 46 -8 -2 -16 5 -20 18 -13 40 -27 48
-49 27 -15 -14 -22 -15 -28 -6 -5 8 -8 2 -9 -17 -1 -23 -3 -25 -7 -10 -3 11
-11 -27 -18 -84 -14 -126 -18 -131 -121 -131 -42 0 -73 -4 -73 -10 0 -6 -33
-10 -80 -10 l-80 0 -6 -40 c-8 -50 -18 -51 -22 -2 -4 58 -28 69 -98 47 -15 -5
-23 -2 -28 10 -14 38 -18 325 -6 535 11 203 15 228 34 252 11 14 33 29 48 33
24 6 27 11 32 68 8 92 4 112 -24 112 -24 0 -40 31 -34 68 1 9 -2 17 -7 17 -5
0 -9 -11 -9 -25 0 -14 -4 -25 -10 -25 -6 0 -10 45 -10 115 0 93 3 115 14 115
9 0 16 -13 18 -32 4 -33 7 -30 24 27 6 20 17 31 32 33 12 2 22 10 22 18 0 8
11 20 25 26 29 13 45 3 48 -30 0 -11 5 -18 10 -15 5 3 34 9 65 14 32 4 75 12
97 17 25 5 75 4 130 -2 l90 -11 6 -45 c7 -50 -7 -183 -22 -211 -5 -10 -34 -25
-67 -34 -31 -9 -69 -20 -83 -24 -14 -5 -74 -8 -132 -7 l-105 1 -5 -35 c-2 -19
-2 -52 1 -73 5 -38 6 -39 36 -32 17 4 49 11 71 16 78 16 271 7 220 -11 -17 -6
-16 -8 10 -21 22 -11 31 -22 33 -45 3 -26 7 -31 23 -27 12 3 25 -1 32 -11 7
-9 22 -18 35 -21 19 -3 22 -1 17 16 -10 30 15 131 38 155 12 12 28 19 36 17
12 -4 11 -2 -2 8 -32 25 -44 199 -22 324 20 118 31 149 55 163 l26 15 -27 27
c-23 22 -27 34 -23 66 2 21 9 97 14 168 12 156 26 187 86 198 21 3 117 12 213
18 193 13 190 14 192 -50 l0 -35 18 40 c10 22 25 46 34 53 10 8 74 15 193 21
99 4 188 9 200 9 11 1 27 -4 36 -10z m-3142 -12 c30 -1 65 2 78 6 13 4 22 3
22 -2 0 -6 10 -10 23 -9 21 0 21 1 2 9 -19 8 -19 9 3 9 12 1 22 -3 22 -9 0 -5
12 -10 28 -10 15 -1 40 -7 56 -13 27 -12 18 -14 -105 -25 -265 -25 -730 -53
-742 -45 -5 3 -36 0 -70 -5 -181 -31 -956 -78 -935 -57 3 3 27 8 53 10 26 2
52 9 59 14 7 6 27 13 44 15 18 2 55 15 84 29 136 66 152 70 331 75 180 5 387
-18 387 -42 0 -8 12 -11 34 -8 18 2 37 -1 40 -7 4 -6 15 -11 24 -10 14 0 13 2
-3 9 -14 6 -6 8 27 6 26 -2 45 0 42 5 -5 9 25 14 121 24 33 3 62 10 63 15 2 6
29 10 60 11 32 0 75 4 97 9 22 4 54 5 70 2 17 -3 55 -6 85 -6z m-7883 -178
c-2 -24 -4 -5 -4 42 0 47 2 66 4 43 2 -24 2 -62 0 -85z m278 -88 c11 -355 17
-418 44 -412 6 1 11 -2 11 -8 0 -5 -4 -10 -10 -10 -13 0 -13 -50 0 -70 8 -12
10 -12 11 5 0 11 3 14 6 8 2 -7 10 -13 18 -13 7 0 20 -10 28 -22 14 -20 16
-21 16 -5 1 34 21 6 21 -29 0 -19 5 -34 10 -34 6 0 10 -18 10 -40 0 -26 -5
-40 -13 -40 -9 0 -12 -11 -9 -37 3 -29 15 -49 52 -85 47 -45 48 -48 55 -122 4
-42 11 -76 16 -76 5 0 9 -36 9 -80 0 -47 -4 -80 -10 -80 -6 0 -10 -33 -10 -79
0 -85 -3 -89 -70 -91 l-25 -1 24 -10 c13 -5 33 -7 45 -4 17 5 18 4 6 -4 -16
-12 -121 -14 -158 -4 -17 4 -22 11 -19 24 3 11 1 17 -4 13 -11 -6 -12 -61 -1
-68 4 -2 45 -6 91 -8 46 -1 85 -7 86 -13 2 -5 6 -84 9 -174 l6 -164 -93 8
c-50 4 -88 3 -84 -1 4 -5 45 -11 90 -14 l82 -5 3 -62 c2 -37 7 -63 14 -63 7 0
9 20 5 61 -7 58 -6 60 16 57 19 -3 22 -10 25 -58 2 -30 8 -58 14 -61 6 -4 2
-11 -11 -18 -33 -18 -16 -31 42 -32 59 -1 115 -17 62 -18 l-30 -1 3 -75 c2
-49 0 -75 -7 -75 -6 0 -11 -8 -11 -17 -1 -23 -23 -53 -39 -53 -7 0 -19 -7 -27
-15 -9 -8 -11 -15 -6 -15 6 0 7 -10 4 -22 -5 -21 -6 -21 -14 7 -6 23 -18 231
-18 313 0 6 -4 12 -8 12 -5 0 -8 -73 -8 -162 l1 -161 -30 -4 c-32 -3 -96 -20
-132 -34 -17 -6 -23 -4 -27 9 -3 9 -10 170 -17 357 -6 187 -17 466 -23 620 -7
160 -9 285 -4 292 5 6 5 28 -1 50 -5 21 -10 112 -11 203 -1 91 -3 192 -4 225
-8 165 -18 699 -13 695 3 -3 9 -98 12 -210z m7820 170 c3 -5 -1 -10 -10 -10
-9 0 -13 5 -10 10 3 6 8 10 10 10 2 0 7 -4 10 -10z m-151 -22 c-3 -13 -8 -25
-10 -26 -3 -5 -182 -32 -206 -32 -19 0 -24 26 -9 49 9 14 90 26 189 30 41 1
43 0 36 -21z m1964 -88 c3 -128 -5 -153 -61 -173 -105 -38 -272 -44 -324 -11
-20 13 -23 13 -23 0 0 -24 -20 -29 -41 -10 -10 9 -17 19 -14 22 2 2 -2 20 -10
39 -8 20 -16 62 -17 95 -3 68 5 78 70 78 35 0 45 4 49 20 4 13 19 23 47 30 22
6 46 13 51 15 6 2 69 3 140 2 l130 -2 3 -105z m-2308 76 c0 -11 -18 -15 -75
-18 -90 -4 -97 14 -9 23 32 3 65 6 72 7 6 1 12 -4 12 -12z m520 4 c0 -5 -12
-10 -27 -9 -25 0 -26 1 -8 9 27 12 35 12 35 0z m-3055 -26 c118 -4 124 -5 170
-23 17 -7 42 -15 58 -18 58 -12 35 -23 -50 -25 -48 -1 -101 -3 -118 -4 -145
-11 -470 -23 -600 -23 l-160 0 70 18 c39 9 77 21 84 26 44 27 355 69 416 56
11 -2 70 -5 130 -7z m2200 -4 c-3 -5 -24 -10 -46 -10 -24 0 -38 4 -34 10 3 6
24 10 46 10 24 0 38 -4 34 -10z m-1042 -7 c-7 -2 -19 -2 -25 0 -7 3 -2 5 12 5
14 0 19 -2 13 -5z m3140 -93 c-2 -108 -8 -140 -28 -140 -12 0 -15 20 -15 114
0 101 2 115 18 119 9 2 19 2 22 1 3 -1 4 -43 3 -94z m-2363 81 c0 -9 -79 -21
-93 -14 -4 3 -5 9 -2 14 8 12 95 12 95 0z m-210 -16 c0 -12 -13 -15 -60 -15
-33 0 -60 4 -60 9 0 14 20 19 73 20 35 1 47 -3 47 -14z m1300 -11 c0 -8 -9
-14 -20 -14 -22 0 -28 26 -7 33 16 6 27 -1 27 -19z m-140 0 c0 -21 -61 -45
-148 -57 -86 -12 -105 -3 -79 37 18 27 39 31 160 34 55 2 67 -1 67 -14z
m-1385 -3 c-11 -10 -105 -19 -105 -10 0 14 17 19 64 19 30 0 46 -4 41 -9z
m-228 -23 c-3 -8 -6 -5 -6 6 -1 11 2 17 5 13 3 -3 4 -12 1 -19z m1274 -5 c16
-43 -8 -58 -91 -58 -77 0 -96 11 -86 49 5 21 13 25 49 29 111 10 117 9 128
-20z m1132 -53 l3 -65 2 67 c2 71 9 79 61 69 23 -4 23 -6 17 -64 -3 -33 -6
-75 -6 -94 0 -24 -8 -41 -26 -58 -25 -23 -28 -24 -40 -7 -7 9 -14 26 -15 37
-1 16 -2 15 -8 -5 -4 -14 -13 -25 -21 -25 -8 0 -17 11 -21 25 -6 25 -6 25 -10
-4 -2 -16 -10 -31 -17 -34 -20 -6 -42 62 -42 133 0 61 2 66 26 75 14 6 29 10
34 10 5 0 11 -33 13 -72 l3 -73 2 77 c1 50 6 78 15 81 20 8 26 -5 30 -73z
m161 13 c-9 -106 -15 -143 -25 -143 -10 0 -12 85 -3 154 4 28 12 46 20 46 9 0
11 -15 8 -57z m-1620 16 c3 -17 6 -105 6 -195 l0 -163 -35 -7 c-19 -3 -42 -4
-50 0 -10 3 -15 -1 -15 -12 0 -14 7 -17 39 -14 25 3 42 -1 47 -10 9 -14 8
-189 -2 -325 l-6 -83 -34 0 c-27 0 -34 -4 -34 -19 0 -14 5 -18 20 -14 39 10
51 -14 46 -86 -3 -36 -8 -169 -11 -296 -7 -329 -17 -497 -27 -460 -4 17 -5
-46 -3 -139 3 -93 6 -230 7 -305 1 -116 2 -102 9 94 10 272 13 295 39 295 15
0 20 7 20 30 0 21 -4 28 -14 24 -8 -3 -17 0 -21 6 -7 11 11 609 22 740 l6 75
9 -45 c5 -25 7 -60 4 -77 -3 -18 -1 -33 5 -33 5 0 9 52 9 120 0 101 -2 119
-15 114 -13 -5 -14 18 -9 173 6 190 8 208 24 198 6 -3 10 5 10 19 0 13 3 31 6
40 4 11 1 16 -10 16 -15 0 -16 17 -15 151 1 101 5 147 12 140 6 -6 29 -8 51
-5 23 3 77 1 121 -5 52 -6 84 -6 91 0 7 5 63 14 126 19 62 5 149 16 193 25 95
18 135 19 185 4 l37 -11 -3 -112 c-1 -61 -7 -140 -13 -175 -8 -53 -8 -73 5
-113 15 -45 35 -61 49 -38 10 16 65 36 117 44 45 7 48 6 54 -19 5 -19 9 -23
15 -14 5 8 23 12 48 10 31 -2 43 2 53 18 15 25 40 27 58 6 7 -8 18 -15 25 -15
20 0 23 -29 14 -132 -11 -129 -16 -144 -55 -169 -33 -20 -34 -20 -64 -2 -24
14 -34 15 -49 6 -24 -15 -41 1 -42 41 l-1 31 -15 -37 c-13 -30 -21 -38 -42
-38 -26 0 -114 30 -127 43 -15 14 -23 6 -33 -30 -19 -73 -23 -150 -11 -187 11
-36 30 -49 30 -22 0 8 9 18 20 21 11 3 20 11 20 16 0 6 8 9 18 8 9 -1 35 3 56
9 43 13 56 9 56 -16 1 -9 7 0 15 22 19 53 34 67 41 38 7 -24 34 -31 34 -8 0
16 20 15 77 -3 34 -11 42 -19 47 -44 3 -17 3 -46 0 -64 -9 -49 4 -40 17 12 8
33 16 45 29 45 12 0 20 9 22 23 2 12 10 22 18 22 22 0 16 -190 -16 -465 -14
-124 -28 -251 -31 -283 -4 -50 -8 -59 -30 -68 -16 -6 -31 -5 -44 1 -14 8 -20
8 -23 -2 -27 -93 -27 -96 -6 -130 13 -21 20 -27 20 -16 0 26 39 44 57 26 12
-13 12 -47 -1 -264 -27 -424 -34 -486 -57 -506 -19 -16 -22 -16 -36 -2 -12 12
-18 13 -24 3 -5 -8 -8 -4 -11 12 -2 18 -10 25 -30 27 -33 4 -35 -8 -13 -61 19
-45 19 -58 1 -34 -13 17 -15 17 -30 -5 -9 -12 -16 -27 -16 -33 0 -5 -4 -17
-10 -25 -7 -12 -13 -9 -31 14 -16 20 -24 24 -29 15 -13 -21 -23 97 -16 194 8
109 -8 99 -18 -11 -3 -41 -11 -83 -17 -95 l-11 -20 -17 20 c-9 12 -31 24 -48
28 -32 6 -33 8 -33 58 0 66 -10 127 -21 127 -4 0 -10 -21 -14 -47 -13 -112
-30 -168 -50 -171 -11 -2 -27 -6 -35 -9 -26 -10 -51 -10 -57 0 -3 5 -5 37 -5
71 l0 61 -12 -67 c-6 -37 -19 -75 -29 -86 -9 -10 -17 -25 -18 -33 0 -8 -6 2
-13 21 -9 24 -20 36 -36 38 -21 3 -22 1 -17 -30 3 -18 9 -42 13 -52 6 -16 4
-18 -18 -13 -18 5 -36 0 -61 -17 -39 -27 -47 -24 -67 28 -8 22 -13 26 -24 17
-10 -8 -17 -6 -30 7 -9 10 -13 22 -9 25 3 4 1 7 -5 7 -7 0 -12 -8 -12 -17 0
-11 -3 -14 -10 -7 -7 7 -5 27 5 62 9 29 13 57 10 62 -13 21 -34 9 -40 -22 -9
-42 -43 -108 -55 -108 -5 0 -20 4 -33 9 -21 8 -26 6 -32 -12 -6 -18 -8 -19
-12 -5 -2 9 2 32 11 51 10 25 11 38 3 46 -19 19 -35 12 -41 -17 -4 -15 -15
-41 -26 -57 -17 -25 -20 -27 -20 -10 -1 19 -1 19 -11 2 -16 -27 -29 -11 -29
35 0 32 -3 39 -16 34 -9 -3 -20 -6 -24 -6 -5 0 -13 -24 -17 -52 -4 -29 -9 -46
-11 -36 -4 19 -77 30 -106 15 -18 -9 -19 -6 -13 77 l6 86 -24 0 c-22 0 -25 -4
-25 -39 0 -40 -23 -76 -41 -66 -5 4 -10 27 -10 53 -1 30 -3 36 -6 17 -2 -16
-8 -47 -14 -68 -9 -34 -12 -36 -32 -26 -12 7 -30 20 -40 31 -14 14 -22 16 -32
8 -11 -9 -16 -4 -24 27 -6 21 -11 55 -11 76 0 30 -4 37 -20 37 -18 0 -20 -4
-14 -40 5 -32 3 -40 -8 -40 -11 0 -17 -17 -22 -62 -7 -68 -12 -80 -26 -58 -6
8 -10 10 -10 4 0 -17 -48 -24 -54 -8 -3 8 -8 37 -12 66 -7 52 -8 52 -16 21 -5
-19 -15 -33 -23 -33 -8 0 -15 -8 -15 -17 -1 -40 -21 18 -28 80 -7 58 -9 62
-32 62 -19 0 -26 7 -31 30 -7 32 -8 32 -14 0 -3 -11 2 -25 11 -31 8 -7 17 -29
20 -50 4 -29 3 -35 -5 -24 -6 8 -11 24 -11 35 0 17 -2 17 -10 5 -6 -8 -15 -32
-21 -53 -7 -28 -15 -37 -27 -35 -28 5 -42 89 -50 313 l-8 210 -8 -190 c-8
-204 -18 -265 -42 -265 -8 0 -18 -8 -21 -17 -6 -15 -7 -14 -14 3 -4 10 -5 30
-2 43 4 15 2 22 -4 18 -6 -4 -8 3 -5 18 2 15 0 25 -7 25 -6 0 -11 -17 -11 -39
0 -22 -5 -43 -11 -47 -7 -4 -9 -21 -6 -40 3 -19 4 -34 1 -34 -13 0 -53 33 -49
40 3 5 1 11 -5 15 -5 3 -10 17 -10 31 0 31 -16 31 -24 -1 -4 -17 -20 -31 -51
-45 -24 -11 -49 -20 -54 -20 -6 0 -11 -6 -12 -12 -1 -7 -4 -2 -8 12 -4 15 -16
27 -31 30 -15 3 -26 14 -28 26 -3 18 -9 20 -64 16 -90 -7 -139 22 -169 97 -12
33 -24 89 -27 134 -2 42 -8 77 -13 77 -5 0 -9 17 -10 38 0 20 -4 55 -8 77 -6
29 -9 -1 -10 -106 0 -80 -4 -174 -7 -208 l-7 -61 -179 0 -178 0 -10 -25 c-6
-15 -20 -27 -37 -31 -15 -3 -43 -10 -60 -14 -46 -12 -72 -2 -79 29 -3 14 -14
52 -25 84 -14 41 -19 85 -19 157 0 75 -3 100 -13 100 -16 0 -39 -120 -42 -221
-3 -113 -33 -150 -136 -169 -48 -9 -53 -8 -77 15 -21 21 -34 25 -83 25 -43 0
-60 4 -67 16 -8 14 -12 13 -36 -11 -26 -26 -30 -27 -119 -23 -81 4 -92 7 -95
24 -2 10 -10 37 -18 59 -13 32 -17 111 -21 405 -3 201 -9 430 -13 510 -5 80
-11 244 -15 365 -3 121 -8 253 -11 294 -3 41 -10 165 -15 275 -6 111 -14 235
-18 276 -4 41 -5 78 -2 82 7 8 270 11 365 4 38 -2 78 -1 90 3 12 5 89 11 171
15 l150 7 -3 -83 c-3 -103 -9 -129 -25 -122 -8 3 -17 -12 -26 -40 -14 -49 -8
-86 14 -86 23 0 28 -42 20 -178 -10 -183 -9 -245 4 -271 12 -22 13 -22 32 -5
10 9 19 13 19 8 0 -5 7 0 15 10 8 11 15 16 15 10 0 -5 9 9 19 31 10 22 15 45
11 50 -41 54 -48 242 -10 294 11 16 20 34 20 40 0 16 18 14 27 -3 9 -16 124
-20 313 -11 67 4 121 2 129 -4 15 -10 35 -114 32 -170 -2 -59 -10 -62 -150
-61 -69 1 -137 -1 -151 -4 -52 -12 -145 -14 -157 -4 -10 8 -13 2 -15 -28 -3
-55 -1 -91 6 -119 l6 -25 229 0 c185 0 231 -3 240 -14 8 -9 12 -57 13 -128 1
-105 25 -260 28 -183 1 26 3 27 10 10 7 -16 9 -17 9 -3 1 9 6 18 13 20 7 3 13
49 16 141 6 164 2 160 132 155 l88 -3 6 38 c4 20 11 37 16 37 13 0 13 37 0 45
-5 3 -10 22 -10 41 l0 34 -90 0 c-76 0 -91 3 -99 18 -11 21 -18 198 -8 208 3
4 49 9 102 12 72 4 95 8 95 19 0 7 8 17 17 20 11 4 26 -5 48 -32 l33 -38 23
21 c28 27 47 28 65 5 13 -17 13 -17 14 0 0 9 5 17 10 17 6 0 11 -24 12 -52 1
-48 2 -49 5 -13 5 50 20 70 39 54 26 -22 11 -289 -16 -289 -8 0 -29 75 -31
112 -1 17 -3 18 -6 6 -2 -10 -9 -18 -14 -18 -5 0 -9 -8 -9 -17 -1 -41 -16 -49
-97 -52 -38 -2 -53 -27 -52 -89 0 -31 4 -66 8 -76 7 -18 8 -18 14 -2 6 15 17
17 65 15 64 -4 72 -10 72 -56 0 -43 18 -43 22 -1 2 23 9 34 22 36 28 6 34 -12
35 -116 1 -53 4 -98 6 -101 3 -2 5 43 5 101 0 118 8 136 53 119 23 -9 26 -7
36 21 15 43 14 120 -2 142 -12 16 -16 17 -35 5 -24 -15 -30 -11 -38 22 -7 30
-5 230 3 242 3 5 18 7 33 5 45 -7 60 51 38 153 -5 25 -24 37 -50 32 -23 -4
-26 -1 -31 34 -4 21 -7 71 -7 110 l0 73 91 -1 92 -1 -7 -154 c-8 -160 -1 -257
16 -233 5 8 8 57 7 109 -1 52 1 136 6 187 7 82 10 92 29 96 42 10 325 12 335
2 5 -6 11 -23 14 -40 l4 -30 2 33 c1 24 5 32 20 32 27 0 38 20 17 32 -20 11
-21 51 -1 68 22 18 34 4 28 -33 -5 -31 -4 -32 34 -32 34 0 38 -2 36 -25 -1
-14 -5 -225 -8 -470 -5 -315 -3 -441 4 -430 6 8 11 25 11 38 0 27 17 62 36 77
10 7 15 56 19 180 3 94 10 190 15 215 5 25 8 101 6 169 -2 84 1 143 11 185 8
33 14 80 13 103 -1 46 -9 41 91 51 11 1 19 -9 23 -29z m1152 19 c4 -6 7 -39 6
-72 -1 -68 1 -66 18 17 l12 57 57 -2 58 -2 -3 -36 c-2 -19 -3 -52 -3 -73 -1
-30 -6 -40 -21 -44 -11 -3 -20 -11 -20 -19 0 -14 -49 -44 -74 -44 -8 0 -16 6
-19 13 -3 9 -9 9 -30 -2 -14 -7 -33 -11 -43 -7 -10 4 -25 -1 -36 -11 -16 -14
-24 -15 -52 -5 -18 7 -40 12 -50 12 -21 0 -76 58 -76 80 0 9 4 20 10 26 5 5
10 24 12 42 3 36 16 43 138 67 85 17 107 17 116 3z m-1526 -44 c0 -13 -4 -24
-10 -24 -5 0 -10 14 -10 31 0 17 4 28 10 24 6 -3 10 -17 10 -31z m-1545 17
c-13 -12 -114 -20 -120 -10 -6 8 28 15 90 18 23 0 35 -3 30 -8z m1433 -24 c4
-35 -12 -41 -80 -30 -44 7 -54 12 -56 30 -3 23 12 28 93 28 36 0 40 -3 43 -28z
m-1744 14 c9 -14 -51 -31 -105 -31 -36 0 -49 4 -49 14 0 8 8 17 18 19 32 9
131 7 136 -2z m-264 -26 c0 -12 -16 -15 -80 -15 -73 0 -91 6 -73 23 3 4 39 7
80 7 58 0 73 -3 73 -15z m-260 -5 c0 -5 -22 -10 -50 -10 l-50 0 0 -45 c0 -56
-26 -64 -35 -11 -11 58 6 76 75 76 33 0 60 -4 60 -10z m147 -58 c47 7 58 2 67
-29 6 -19 2 -25 -19 -33 -14 -5 -34 -10 -44 -10 -29 0 -71 46 -71 76 0 26 1
26 13 9 11 -14 23 -17 54 -13z m4733 -4 c0 -23 -3 -29 -11 -21 -6 6 -8 20 -4
32 9 30 15 26 15 -11z m-4369 17 c10 -4 19 -15 19 -25 0 -22 -14 -26 -101 -34
-61 -5 -79 4 -79 39 0 18 7 20 71 23 39 1 79 0 90 -3z m1002 -7 c12 -6 41 -12
65 -13 48 -1 61 -14 63 -60 l1 -30 8 29 c5 16 7 33 4 38 -3 4 8 8 25 8 16 0
33 5 36 10 3 6 13 10 21 10 11 0 14 -15 14 -67 0 -84 -10 -144 -21 -137 -5 3
-10 31 -10 62 l-1 57 -8 -52 c-4 -29 -10 -60 -14 -68 -8 -21 -33 -19 -46 5
-11 20 -12 20 -41 -10 -32 -31 -69 -40 -69 -16 0 12 -7 13 -32 5 -18 -5 -59
-9 -90 -9 -77 0 -87 15 -82 118 6 110 5 108 82 120 37 5 68 10 70 11 2 0 13
-4 25 -11z m-1233 -13 c15 -18 6 -45 -14 -45 -20 0 -29 16 -21 40 8 24 18 25
35 5z m1519 -77 c-2 -94 -12 -134 -30 -123 -10 7 -12 85 -3 163 5 35 11 52 21
52 11 0 14 -18 12 -92z m-619 72 c12 -7 15 -32 15 -114 0 -57 -2 -107 -5 -109
-10 -10 -235 -16 -250 -7 -8 5 -19 5 -25 0 -6 -5 -52 -10 -102 -12 -81 -2 -93
-5 -101 -23 -9 -19 -11 -18 -22 10 -6 17 -14 69 -17 116 -6 83 -5 86 21 112
25 25 33 27 109 27 57 0 89 -5 104 -15 18 -13 22 -13 26 -1 3 8 21 16 39 19
67 8 193 6 208 -3z m-1180 -15 c0 -10 -10 -15 -30 -15 -20 0 -30 5 -30 15 0
10 10 15 30 15 20 0 30 -5 30 -15z m4138 -273 c3 -17 8 -21 23 -17 18 6 19 0
19 -104 0 -105 -13 -167 -31 -155 -5 3 -9 31 -10 62 l-1 57 -14 -69 c-7 -38
-15 -70 -17 -73 -10 -9 -37 11 -37 28 0 12 -5 16 -14 13 -27 -10 -29 34 -10
179 3 26 10 44 15 41 5 -3 9 -1 9 5 0 5 5 22 10 36 13 34 53 32 58 -3z m116
-4 c7 -39 -8 -253 -21 -285 -15 -41 -37 -10 -41 59 -5 87 13 238 29 249 22 14
26 11 33 -23z m76 -50 c0 -62 -19 -181 -30 -192 -19 -19 -22 26 -10 122 7 53
14 100 17 105 12 20 23 3 23 -35z m43 -151 c-5 -21 -13 -38 -18 -37 -13 1 -9
102 7 165 l13 50 3 -70 c1 -38 -1 -87 -5 -108z m-8483 128 c0 -8 -4 -15 -10
-15 -5 0 -10 7 -10 15 0 8 5 15 10 15 6 0 10 -7 10 -15z m5348 -7 c14 -14 16
-146 2 -168 -17 -27 -32 5 -38 79 -6 92 5 120 36 89z m-5751 -60 c-3 -8 -6 -5
-6 6 -1 11 2 17 5 13 3 -3 4 -12 1 -19z m10 -325 c-2 -38 -3 -7 -3 67 0 74 1
105 3 68 2 -38 2 -98 0 -135z m-540 65 c-2 -13 -4 -5 -4 17 -1 22 1 32 4 23 2
-10 2 -28 0 -40z m9267 -239 c-2 -198 -20 -536 -32 -598 -6 -27 -14 -36 -35
-42 l-27 -7 0 64 c0 54 30 533 44 691 5 58 22 96 39 90 9 -3 12 -57 11 -198z
m141 162 c6 -10 -17 -413 -35 -601 -5 -58 -9 -113 -10 -122 0 -20 -32 -43 -72
-52 -28 -6 -28 -6 -28 41 0 47 24 259 35 305 2 13 14 105 25 206 12 101 25
194 30 208 9 24 43 33 55 15z m-9398 -143 c-2 -29 -3 -8 -3 47 0 55 1 79 3 53
2 -26 2 -71 0 -100z m9180 10 c-8 -182 -47 -621 -55 -630 -4 -4 -13 -3 -21 1
-11 7 -8 69 17 374 17 202 33 371 37 377 3 5 11 10 17 10 8 0 9 -39 5 -132z
m122 42 c-6 -41 -13 -77 -15 -79 -6 -7 -4 121 2 147 14 50 22 3 13 -68z m260
-115 c-12 -293 -30 -538 -40 -557 -6 -11 -16 -15 -25 -11 -14 5 -16 21 -9 127
16 281 48 617 62 639 16 26 20 -28 12 -198z m-2739 169 c0 -2 -7 -4 -15 -4 -8
0 -15 4 -15 10 0 5 7 7 15 4 8 -4 15 -8 15 -10z m-6278 -211 c2 -78 0 -136 -4
-130 -4 7 -7 80 -6 162 1 179 6 164 10 -32z m4326 -308 l-1 -130 -7 115 c-4
63 -10 203 -13 310 l-6 195 14 -180 c7 -99 13 -238 13 -310z m-59 193 c0 -112
-3 -194 -7 -183 -8 22 -4 385 3 385 3 0 5 -91 4 -202z m-4802 30 c-2 -13 -4
-3 -4 22 0 25 2 35 4 23 2 -13 2 -33 0 -45z m11462 -33 c0 -5 -4 -3 -9 5 -5 8
-9 22 -9 30 0 16 17 -16 18 -35z m-3 -77 c-14 -10 -15 -7 -8 27 6 30 6 30 12
5 4 -14 2 -28 -4 -32z m0 -75 c3 -26 7 -54 9 -60 2 -7 0 -13 -5 -13 -5 0 -11
-8 -13 -17 -2 -10 -3 -2 -1 17 2 19 1 29 -2 23 -3 -7 -10 -13 -15 -13 -14 0
-11 26 5 39 10 9 13 24 9 49 -3 20 -3 34 1 30 5 -3 10 -28 12 -55z m-10285
-32 c14 -2 19 -35 8 -42 -10 -6 -10 -28 -1 -97 6 -49 8 -100 5 -112 -4 -13 0
-26 8 -31 9 -6 1 -9 -26 -9 -22 0 -64 -3 -92 -6 l-53 -7 0 154 0 155 73 -3
c39 -1 75 -2 78 -2z m3686 -163 c-3 -8 -6 -5 -6 6 -1 11 2 17 5 13 3 -3 4 -12
1 -19z m5286 -75 c-7 -2 -19 -2 -25 0 -7 3 -2 5 12 5 14 0 19 -2 13 -5z
m-5273 -344 c0 -210 -3 -298 -11 -294 -17 11 -10 595 7 595 2 0 4 -135 4 -301z
m6553 204 l-7 -48 -7 40 c-4 22 -5 51 -2 64 10 43 24 -3 16 -56z m-2233 12 c0
-24 -7 -101 -15 -172 -8 -70 -24 -229 -35 -352 -26 -276 -44 -324 -35 -96 8
223 33 626 40 651 5 15 12 20 26 17 15 -4 19 -14 19 -48z m127 8 c8 -22 -35
-536 -53 -619 -9 -46 -10 -73 -3 -91 13 -35 5 -53 -25 -53 -22 0 -26 6 -32 48
-8 55 10 704 20 720 12 19 85 15 93 -5z m189 -217 c-13 -446 -16 -484 -38
-489 -11 -3 -21 0 -25 9 -6 17 15 678 23 699 5 11 10 12 26 4 20 -11 20 -17
14 -223z m-410 112 c-35 -618 -39 -658 -63 -635 -13 14 -15 122 -3 237 6 63
15 185 20 271 9 160 23 239 42 239 7 0 8 -35 4 -112z m-1369 35 c-3 -10 -5 -2
-5 17 0 19 2 27 5 18 2 -10 2 -26 0 -35z m-1839 -652 c10 -6 10 -10 -3 -21 -8
-7 -15 -20 -16 -29 -1 -16 -16 23 -18 47 -1 14 18 16 37 3z m600 -50 c3 -8 -1
-12 -9 -9 -7 2 -15 10 -17 17 -3 8 1 12 9 9 7 -2 15 -10 17 -17z m1272 -135
c0 -59 -4 -108 -10 -111 -6 -4 -10 8 -10 28 0 19 -3 68 -6 110 -6 67 -5 77 10
77 14 0 16 -14 16 -104z m-373 -397 c-72 -23 -101 -27 -107 -14 -3 6 22 15 55
21 92 18 118 14 52 -7z m1763 -118 c0 -10 -42 -23 -49 -15 -7 6 20 24 37 24 6
0 12 -4 12 -9z m-8140 -38 c0 -7 -9 -13 -20 -13 -11 0 -20 -4 -20 -10 0 -19
-49 11 -50 30 0 3 20 5 45 5 29 0 45 -4 45 -12z m3398 -33 c41 -38 22 -42 -23
-5 -20 16 -25 25 -14 25 8 0 25 -9 37 -20z m-120 -95 c-2 -35 -7 -67 -11 -71
-14 -14 -21 7 -25 71 -4 62 -3 65 18 65 21 0 22 -3 18 -65z m6440 2 c2 -12 -3
-17 -17 -17 -12 0 -21 6 -21 13 0 31 32 34 38 4z m-1448 -7 c0 -15 -57 -41
-76 -33 -13 5 -10 10 17 24 38 20 59 24 59 9z m1440 -79 c0 -11 -59 -26 -67
-18 -3 3 -2 10 2 16 8 13 65 15 65 2z m-3923 -17 c-3 -3 -12 -4 -19 -1 -8 3
-5 6 6 6 11 1 17 -2 13 -5z m3793 -26 c-11 -12 -20 -28 -20 -35 0 -16 -36 -18
-45 -2 -4 5 1 19 10 29 15 16 27 22 68 29 4 0 -1 -9 -13 -21z m-3950 -3 c-6
-8 -19 -14 -28 -13 -26 3 -116 -14 -122 -22 -3 -5 -18 -6 -33 -3 -43 8 -14 33
42 34 25 1 60 5 76 9 17 4 41 8 54 9 20 1 21 -1 11 -14z m-5376 -11 c3 -8 2
-12 -4 -9 -6 3 -10 10 -10 16 0 14 7 11 14 -7z m9622 -19 c9 -8 33 -15 54 -15
21 0 51 -5 66 -11 16 -5 54 -11 86 -12 32 -1 58 -5 58 -9 0 -4 13 -8 28 -8 16
0 32 -3 36 -7 4 -4 21 -6 39 -5 39 3 69 -13 49 -27 -11 -6 -10 -10 3 -15 9 -3
27 -6 40 -6 13 0 30 -7 38 -15 13 -13 16 -13 21 1 8 20 27 8 24 -14 -2 -12 5
-17 22 -18 14 -1 32 -4 40 -7 8 -3 26 -8 40 -11 55 -10 -588 16 -735 30 -87 8
-88 17 -16 85 36 33 70 58 77 55 8 -3 11 1 7 10 -7 18 4 18 23 -1z m-7533 -12
c-7 -2 -19 -2 -25 0 -7 3 -2 5 12 5 14 0 19 -2 13 -5z m-138 -32 c3 -5 1 -12
-4 -15 -5 -3 -11 1 -15 9 -6 16 9 21 19 6z m175 -1 c0 -5 -15 -10 -32 -10 -25
0 -29 3 -18 10 20 13 50 13 50 0z m2775 -4 c40 -17 48 -30 9 -16 -14 6 -38 10
-53 10 -38 0 -145 -29 -149 -40 -2 -6 -18 -10 -36 -10 -18 0 -36 -4 -41 -9 -6
-5 -30 -11 -55 -13 -34 -2 -45 1 -48 13 -2 12 18 20 90 37 199 48 228 50 283
28z m5262 -42 c-3 -3 -12 -4 -19 -1 -8 3 -5 6 6 6 11 1 17 -2 13 -5z m-4777
-28 c0 -24 22 -38 85 -52 17 -4 35 -11 42 -16 7 -5 16 -7 22 -4 12 8 41 -3 41
-15 0 -5 -13 -9 -30 -9 -28 0 -30 -2 -30 -39 0 -22 5 -43 11 -47 16 -9 -26
-25 -156 -59 -118 -30 -180 -33 -320 -16 -44 6 -141 15 -214 22 -234 19 -379
56 -294 74 15 4 44 13 63 20 19 8 78 17 130 19 97 5 158 21 214 55 17 11 60
26 96 34 58 14 67 14 82 0 11 -10 26 -13 42 -9 14 3 27 2 31 -4 8 -13 37 -1
57 24 15 18 76 42 116 45 6 1 12 -10 12 -23z m1083 7 c-7 -2 -19 -2 -25 0 -7
3 -2 5 12 5 14 0 19 -2 13 -5z m-86 -19 c-7 -7 -51 -18 -204 -49 -140 -28
-133 -28 -133 -17 0 4 44 16 98 26 53 10 117 25 142 32 47 13 108 18 97 8z
m-467 -49 c30 -17 13 -26 -40 -21 -19 2 -45 4 -57 5 -13 1 -23 5 -23 10 0 21
86 25 120 6z m-4009 -32 l24 -26 -27 19 c-15 10 -28 22 -28 27 0 12 5 8 31
-20z m3794 -4 c11 -17 -2 -22 -42 -14 l-38 8 30 7 c44 11 43 11 50 -1z m303 5
c-3 -3 -43 -14 -88 -25 -59 -14 -86 -17 -93 -10 -8 8 -6 11 6 11 9 0 18 0 20
1 50 17 166 35 155 23z m-198 -39 c0 -10 -9 -15 -27 -14 -17 1 -21 3 -10 6 9
2 17 9 17 14 0 5 5 9 10 9 6 0 10 -7 10 -15z m-4879 -108 c10 -18 6 -17 -20 7
-36 34 -39 41 -11 26 11 -6 25 -20 31 -33z m3024 -167 c3 -5 -14 -14 -37 -20
-229 -60 -356 -90 -373 -90 -17 1 143 52 270 86 145 38 133 36 140 24z m1142
-6 c-3 -3 -12 -4 -19 -1 -8 3 -5 6 6 6 11 1 17 -2 13 -5z m-1332 -154 c-11 -5
-33 -8 -50 -8 -29 1 -29 1 5 8 49 10 69 10 45 0z m-97 -17 c-10 -2 -26 -2 -35
0 -10 3 -2 5 17 5 19 0 27 -2 18 -5z m2602 -67 c-24 -22 -536 -203 -546 -193
-5 5 70 37 87 37 6 0 25 6 42 14 44 20 248 91 349 121 32 10 55 22 52 26 -3 5
3 9 13 9 15 0 15 -2 3 -14z m339 -21 c75 -8 201 -21 281 -30 80 -8 231 -23
335 -34 105 -11 217 -22 250 -25 64 -6 361 -36 643 -65 95 -10 178 -23 184
-29 11 -11 -34 -67 -129 -160 -13 -13 -23 -26 -23 -30 -1 -4 -18 -27 -40 -52
-28 -32 -38 -38 -33 -22 3 13 1 22 -6 22 -20 0 -58 -45 -90 -106 -19 -38 -71
-102 -143 -178 l-113 -119 -80 1 c-44 1 -190 15 -325 31 -135 17 -362 44 -505
61 -400 47 -490 58 -620 75 -66 9 -277 36 -469 60 -305 38 -383 53 -365 69 2
2 60 32 128 67 113 58 147 87 69 60 -17 -6 -40 -11 -50 -11 -32 0 -11 17 29
25 47 8 157 55 209 87 21 14 45 23 52 21 7 -3 82 35 168 84 374 212 373 211
443 212 35 1 125 -6 200 -14z m-3379 -105 c0 -5 -8 -10 -17 -10 -15 0 -16 2
-3 10 19 12 20 12 20 0z m1958 -120 c3 -78 -6 -93 -49 -92 -42 1 -59 24 -59
77 0 54 34 87 85 82 17 -2 20 -10 23 -67z m277 50 c49 -6 91 -13 95 -16 22
-23 -207 -119 -267 -112 -27 3 -28 5 -31 71 l-3 67 58 0 c32 0 98 -5 148 -10z
m235 -4 c0 -2 -13 -9 -30 -15 -35 -12 -41 -5 -7 9 25 10 37 12 37 6z m-652
-87 c-3 -34 -3 -34 -68 -41 -36 -4 -68 -4 -73 1 -10 10 125 91 136 81 5 -4 7
-23 5 -41z m3369 31 c6 -37 -213 -168 -238 -143 -8 8 10 22 59 48 43 22 72 44
75 57 3 11 10 17 15 14 5 -3 20 6 33 20 25 26 52 28 56 4z m-2825 -40 c-20
-16 -56 -27 -162 -46 -19 -4 -15 1 15 17 48 27 111 48 145 48 l25 0 -23 -19z
m-2332 6 c0 -3 -4 -8 -10 -11 -5 -3 -10 -1 -10 4 0 6 5 11 10 11 6 0 10 -2 10
-4z m1867 -72 c-3 -3 -12 -4 -19 -1 -8 3 -5 6 6 6 11 1 17 -2 13 -5z m-327
-14 c0 -12 -8 -12 -35 0 -18 8 -17 9 8 9 15 1 27 -3 27 -9z m555 -10 c4 -6
-10 -10 -34 -10 -23 0 -41 5 -41 10 0 6 15 10 34 10 19 0 38 -4 41 -10z m-380
-140 c-27 -12 -43 -12 -25 0 8 5 22 9 30 9 10 0 8 -3 -5 -9z m-70 -27 c-58
-31 -216 -92 -213 -82 2 6 44 26 93 45 50 19 99 39 110 44 34 15 42 10 10 -7z
m2945 -263 c0 -5 -5 -10 -11 -10 -5 0 -7 5 -4 10 3 6 8 10 11 10 2 0 4 -4 4
-10z m-3210 -47 c-1 -27 -25 -71 -35 -62 -2 3 2 18 10 33 8 16 15 35 15 42 0
8 2 14 5 14 3 0 5 -12 5 -27z m-106 -51 c-4 -18 -10 -32 -14 -32 -7 0 -5 24 6
59 8 26 14 4 8 -27z m316 -22 c0 -5 11 -10 25 -10 18 0 25 -5 25 -19 0 -45 65
-49 76 -5 3 13 11 24 16 24 6 0 7 -8 3 -17 -3 -10 -15 -48 -25 -84 -10 -37
-23 -76 -29 -87 -14 -26 -14 -79 -1 -87 6 -3 20 -27 31 -53 12 -26 30 -60 41
-75 11 -15 22 -42 25 -60 6 -43 19 -54 33 -28 l11 22 18 -23 c10 -13 26 -47
36 -75 11 -29 23 -53 28 -53 4 0 5 -5 2 -10 -4 -6 -2 -16 4 -23 14 -17 22
-198 12 -269 -4 -32 -4 -82 0 -112 4 -30 3 -83 -2 -118 -5 -34 -10 -69 -11
-76 -1 -7 -7 -11 -14 -8 -7 3 -15 -1 -17 -9 -3 -7 3 -15 14 -18 13 -4 19 -14
19 -36 0 -27 -4 -31 -35 -37 -19 -3 -38 -11 -41 -16 -3 -5 -16 -13 -27 -19
-12 -5 -31 -14 -42 -21 -11 -6 -26 -14 -34 -17 -7 -4 -12 -10 -10 -15 2 -4 -8
-14 -23 -22 -16 -8 -28 -19 -28 -24 0 -6 -11 -10 -24 -10 -27 0 -51 -23 -43
-43 3 -7 -1 -21 -9 -32 -17 -23 -18 -38 -1 -30 6 4 3 -1 -7 -9 -17 -14 -18
-16 -3 -16 9 0 17 -4 17 -10 0 -5 -9 -10 -21 -10 -11 0 -17 -4 -14 -10 3 -5
-3 -10 -14 -10 -12 0 -21 -4 -21 -9 0 -5 -3 -16 -6 -25 -4 -11 -1 -16 11 -16
14 0 15 -3 6 -14 -14 -16 -5 -23 26 -21 14 2 20 -2 16 -11 -3 -8 -10 -14 -17
-14 -6 0 -4 -5 4 -10 12 -8 11 -12 -8 -30 -28 -26 -28 -32 1 -25 18 5 28 0 40
-19 22 -32 21 -39 -1 -34 -10 3 -27 -1 -37 -8 -18 -14 -18 -14 0 -14 14 0 8
-8 -21 -30 -25 -18 -51 -30 -72 -30 -23 0 -31 -4 -26 -12 5 -8 2 -9 -10 -5
-10 4 -15 3 -11 -4 4 -5 15 -7 26 -4 10 3 29 8 41 11 20 6 20 5 -4 -19 -14
-14 -28 -31 -30 -38 -3 -8 -9 -9 -19 -4 -14 9 -89 14 -89 6 0 -2 8 -10 18 -17
16 -12 15 -13 -5 -14 -14 0 -23 6 -23 15 0 8 -5 15 -11 15 -5 0 -7 5 -3 12 5
8 2 9 -9 5 -33 -13 -15 23 21 42 33 18 19 26 -18 11 -36 -15 -43 -11 -42 27 0
15 -7 36 -16 46 -8 9 -12 17 -7 17 4 0 3 6 -3 13 -12 15 -13 68 0 84 10 13 -6
53 -22 53 -5 0 -7 7 -4 15 4 8 2 15 -4 15 -15 0 -24 -39 -22 -97 1 -31 -3 -53
-9 -53 -5 0 -13 -16 -17 -36 -9 -47 -25 -52 -67 -20 -19 14 -44 26 -55 26 -29
0 -28 4 8 38 38 37 40 56 5 40 -14 -6 -25 -15 -25 -20 0 -5 -7 -3 -15 6 -19
18 -19 46 -1 46 8 0 16 7 20 15 3 8 2 15 -2 15 -5 0 -16 16 -25 35 -14 30 -15
35 -2 35 8 0 15 4 15 9 0 5 12 11 27 13 14 2 28 9 31 16 3 9 -15 12 -66 12
-47 0 -72 4 -75 13 -6 18 20 65 44 78 16 8 18 13 9 19 -9 5 -9 9 -1 14 6 4 11
19 11 34 l-1 27 -18 -22 c-24 -28 -28 -28 -50 -1 -12 14 -17 35 -16 60 2 30
-1 38 -15 38 -9 0 -17 6 -18 13 0 6 -4 65 -8 129 l-7 117 25 12 c21 9 27 20
31 58 4 32 1 51 -9 62 -21 23 -17 49 10 74 20 18 25 19 33 7 8 -13 13 -13 40
2 18 9 41 16 53 16 27 0 27 -38 -1 -48 -19 -8 -20 -10 -5 -24 8 -9 22 -54 30
-100 8 -46 20 -96 25 -111 14 -36 14 -40 -1 -31 -8 5 -9 2 -3 -12 13 -31 12
-77 -4 -109 -8 -16 -16 -24 -18 -17 -5 14 -43 17 -43 3 0 -5 10 -12 23 -16 16
-5 18 -8 7 -11 -17 -5 -46 -62 -36 -71 8 -8 36 17 36 32 0 7 8 22 18 34 12 15
21 18 32 11 10 -6 11 -10 3 -10 -20 0 -15 -17 7 -23 12 -3 20 -14 20 -27 0
-12 10 -30 23 -40 l22 -18 -30 -12 c-27 -10 -28 -13 -12 -21 9 -6 15 -14 12
-20 -4 -5 1 -9 9 -9 9 0 16 6 16 14 0 8 5 16 12 18 7 3 9 11 4 24 -13 29 -14
64 -5 114 5 30 4 47 -4 52 -9 5 -9 18 0 50 8 28 8 47 2 55 -12 13 -14 66 -9
206 3 98 14 132 25 80 11 -49 24 -73 41 -73 18 0 19 -10 -10 190 -9 58 -20
123 -25 144 -5 22 -9 42 -9 45 1 3 -4 25 -10 48 -13 45 -14 44 88 383 46 153
40 145 93 141 33 -2 47 1 47 10 0 10 3 10 12 1 7 -7 22 -12 34 -12 32 0 85 21
78 31 -3 5 4 9 15 9 12 0 21 -4 21 -10z m310 -47 c0 -9 -6 -24 -14 -32 -8 -9
-17 -29 -21 -46 l-7 -30 21 30 c13 19 21 25 22 15 1 -8 5 3 9 25 5 30 8 10 11
-75 6 -197 4 -352 -3 -357 -7 -4 -9 13 -12 105 -1 19 -8 39 -16 45 -8 7 -28
38 -44 70 -22 45 -27 67 -22 95 3 20 10 38 16 40 5 2 8 7 5 12 -7 12 37 130
47 124 4 -3 8 -12 8 -21z m-750 -18 c0 -8 -4 -15 -10 -15 -5 0 -7 7 -4 15 4 8
8 15 10 15 2 0 4 -7 4 -15z m97 -17 c-3 -8 -6 -5 -6 6 -1 11 2 17 5 13 3 -3 4
-12 1 -19z m-117 -78 c-6 -37 -8 -40 -9 -13 -1 29 8 68 14 61 1 -2 -1 -23 -5
-48z m640 0 c-7 -17 -14 -29 -16 -27 -2 2 1 18 7 36 6 18 14 30 17 27 2 -3 -1
-19 -8 -36z m327 -22 c-3 -7 -5 -2 -5 12 0 14 2 19 5 13 2 -7 2 -19 0 -25z
m-313 -116 c14 -23 26 -48 26 -57 0 -53 -62 44 -66 105 -3 35 -2 39 5 20 4
-14 20 -45 35 -68z m323 31 c-3 -10 -5 -4 -5 12 0 17 2 24 5 18 2 -7 2 -21 0
-30z m-987 -8 c0 -26 -4 -35 -17 -35 -13 0 -14 3 -5 12 7 7 12 22 12 35 0 13
2 23 5 23 3 0 5 -16 5 -35z m928 -238 c6 -75 5 -96 -5 -93 -7 3 -13 -7 -16
-27 -2 -18 -4 58 -4 168 0 209 6 196 25 -48z m-941 156 c-3 -10 -5 -4 -5 12 0
17 2 24 5 18 2 -7 2 -21 0 -30z m1027 -169 c4 -55 3 -81 -3 -69 -5 11 -11 72
-14 135 -7 132 7 79 17 -66z m-1034 117 c0 -10 -7 -54 -14 -97 -8 -44 -17 -92
-19 -109 -3 -20 -4 -14 -6 18 0 29 -5 46 -11 42 -15 -9 -12 16 4 29 16 13 31
80 16 71 -6 -3 -10 1 -10 10 0 9 5 13 10 10 6 -4 10 5 10 19 0 14 5 26 10 26
6 0 10 -9 10 -19z m2251 -234 c3 -4 26 -8 51 -9 42 -2 45 -4 45 -30 0 -35 -19
-36 -109 -8 -34 11 -84 23 -110 26 -44 6 -56 13 -43 25 8 8 160 5 166 -4z
m-2277 -70 c-3 -9 -11 -17 -16 -17 -6 0 -5 -6 2 -15 9 -11 8 -19 -4 -37 -9
-12 -17 -36 -17 -53 -2 -26 -2 -27 -6 -6 -6 29 -26 51 -47 51 -9 0 -16 6 -16
14 0 8 -3 21 -6 29 -4 11 6 20 33 32 21 9 45 20 53 25 19 10 32 -2 24 -23z
m2673 -53 c-3 -3 -12 -4 -19 -1 -8 3 -5 6 6 6 11 1 17 -2 13 -5z m177 -33 c22
-24 7 -35 -34 -26 -32 7 -45 19 -35 35 10 17 51 11 69 -9z m-2904 -51 c0 -21
-15 -27 -25 -10 -4 6 -11 8 -16 5 -5 -4 -9 -2 -9 4 0 5 6 12 13 14 25 11 37 6
37 -13z m177 -12 c-3 -7 -5 -2 -5 12 0 14 2 19 5 13 2 -7 2 -19 0 -25z m2899
17 c18 -14 18 -14 -8 -15 -27 0 -43 12 -31 24 9 9 17 8 39 -9z m308 -46 c-30
-31 -92 -74 -99 -68 -4 5 114 99 123 99 3 0 -7 -14 -24 -31z m-995 -128 c-13
-10 -40 -33 -59 -50 -19 -17 -39 -31 -44 -31 -12 0 -7 5 64 63 30 25 57 44 59
41 2 -2 -7 -12 -20 -23z m1225 -123 c-11 -19 -187 -218 -192 -218 -11 0 41 66
112 144 76 82 96 101 80 74z m-3684 -408 c0 -5 -7 -10 -16 -10 -8 0 -12 5 -9
10 3 6 10 10 16 10 5 0 9 -4 9 -10z m-20 -24 c0 -3 -4 -8 -10 -11 -5 -3 -10
-1 -10 4 0 6 5 11 10 11 6 0 10 -2 10 -4z m668 -117 c-2 -6 -8 -10 -13 -10 -5
0 -11 4 -13 10 -2 6 4 11 13 11 9 0 15 -5 13 -11z m3199 -111 c-3 -8 -6 -5 -6
6 -1 11 2 17 5 13 3 -3 4 -12 1 -19z m27 -91 c4 -19 3 -26 -4 -22 -5 3 -10 18
-10 32 0 32 5 28 14 -10z m-3784 -35 c0 -26 11 -34 24 -18 6 8 21 17 34 21 31
9 29 -18 -3 -33 -14 -6 -25 -16 -25 -21 0 -5 -9 -11 -20 -14 -11 -3 -20 -11
-20 -17 0 -9 8 -7 25 4 30 20 45 20 45 2 0 -9 7 -12 20 -9 11 3 20 0 20 -6 0
-6 -7 -11 -15 -11 -8 0 -15 -3 -15 -7 0 -12 -68 -14 -75 -2 -4 5 -18 14 -31
19 -31 12 -31 30 1 30 25 0 35 23 15 35 -16 10 -12 45 5 45 8 0 15 -8 15 -18z
m3808 -72 l0 -25 -8 25 c-4 14 -8 34 -8 45 l-1 20 9 -20 c5 -11 8 -31 8 -45z
m41 -170 c9 -72 -9 -173 -25 -136 -5 13 -3 21 4 24 8 2 8 11 2 28 -7 18 -7 23
1 18 12 -7 9 32 -6 71 -5 16 -5 17 4 5 9 -13 11 -12 11 6 0 11 -4 24 -9 30 -5
5 -12 29 -15 54 l-6 45 15 -40 c8 -22 19 -69 24 -105z m-3802 104 c-3 -3 -12
-4 -19 -1 -8 3 -5 6 6 6 11 1 17 -2 13 -5z m487 -636 c6 -5 1 -8 -11 -8 -13 0
-23 6 -23 13 0 20 14 31 19 15 2 -7 9 -16 15 -20z m30 -50 c11 -10 16 -21 12
-25 -4 -5 -13 -1 -20 8 -6 9 -20 18 -30 20 -11 2 -21 9 -23 16 -6 17 37 4 61
-19z m3269 2 c-3 -12 -8 -19 -11 -16 -5 6 5 36 12 36 2 0 2 -9 -1 -20z m-3093
-10 c0 -5 -4 -10 -10 -10 -5 0 -10 5 -10 10 0 6 5 10 10 10 6 0 10 -4 10 -10z
m53 -62 c15 -8 16 -12 6 -25 -10 -11 -24 -13 -58 -8 -55 8 -57 10 -42 29 14
16 66 18 94 4z m22 -72 c14 -21 13 -76 -2 -76 -11 0 -33 30 -38 53 -12 48 14
63 40 23z m3035 -105 c0 -6 -4 -13 -10 -16 -5 -3 -10 1 -10 9 0 9 5 16 10 16
6 0 10 -4 10 -9z m-50 -361 c0 -5 -4 -10 -10 -10 -5 0 -10 5 -10 10 0 6 5 10
10 10 6 0 10 -4 10 -10z m220 -491 c0 -5 -7 -9 -15 -9 -15 0 -20 12 -9 23 8 8
24 -1 24 -14z"/>
<path d="M7255 11350 c3 -5 19 -10 36 -10 16 0 29 5 29 10 0 6 -16 10 -36 10
-21 0 -33 -4 -29 -10z"/>
<path d="M7345 11330 c3 -5 8 -10 11 -10 2 0 4 5 4 10 0 6 -5 10 -11 10 -5 0
-7 -4 -4 -10z"/>
<path d="M6818 11253 c12 -2 32 -2 45 0 12 2 2 4 -23 4 -25 0 -35 -2 -22 -4z"/>
<path d="M7220 11123 c14 -3 32 -11 42 -20 11 -9 18 -11 23 -4 12 20 -6 31
-48 30 -28 -1 -33 -3 -17 -6z"/>
<path d="M7740 10470 c0 -5 5 -10 10 -10 6 0 10 5 10 10 0 6 -4 10 -10 10 -5
0 -10 -4 -10 -10z"/>
<path d="M7581 10336 c-9 -11 -7 -15 11 -20 13 -3 38 -6 56 -6 25 0 32 4 32
20 0 17 -7 20 -44 20 -25 0 -48 -6 -55 -14z"/>
<path d="M15455 9960 c3 -5 8 -10 11 -10 2 0 4 5 4 10 0 6 -5 10 -11 10 -5 0
-7 -4 -4 -10z"/>
<path d="M15470 9934 c0 -5 7 -19 15 -30 8 -10 15 -14 15 -8 0 5 -7 19 -15 30
-8 10 -15 14 -15 8z"/>
<path d="M12666 9074 c-4 -14 -9 -65 -11 -113 -5 -100 -19 -148 -46 -156 -10
-4 -19 -11 -19 -16 0 -5 -15 -10 -32 -10 -27 -1 -24 -3 17 -11 27 -5 55 -14
61 -19 18 -15 23 10 29 154 3 72 8 147 11 165 6 38 -1 43 -10 6z"/>
<path d="M12731 8894 c0 -11 3 -14 6 -6 3 7 2 16 -1 19 -3 4 -6 -2 -5 -13z"/>
<path d="M12706 8835 c4 -8 8 -15 10 -15 2 0 4 7 4 15 0 8 -4 15 -10 15 -5 0
-7 -7 -4 -15z"/>
<path d="M11511 8544 c0 -11 3 -14 6 -6 3 7 2 16 -1 19 -3 4 -6 -2 -5 -13z"/>
<path d="M1952 8995 c0 -16 2 -22 5 -12 2 9 2 23 0 30 -3 6 -5 -1 -5 -18z"/>
<path d="M2040 8791 c0 -6 5 -13 10 -16 6 -3 10 1 10 9 0 9 -4 16 -10 16 -5 0
-10 -4 -10 -9z"/>
<path d="M1962 8750 c0 -19 2 -27 5 -17 2 9 2 25 0 35 -3 9 -5 1 -5 -18z"/>
<path d="M1981 8734 c0 -11 3 -14 6 -6 3 7 2 16 -1 19 -3 4 -6 -2 -5 -13z"/>
<path d="M1960 8623 c0 -12 5 -25 11 -28 16 -11 17 -2 2 25 -12 24 -13 24 -13
3z"/>
<path d="M1968 8475 c-3 -14 -1 -25 3 -25 5 0 9 11 9 25 0 14 -2 25 -4 25 -2
0 -6 -11 -8 -25z"/>
<path d="M2048 8143 c7 -3 16 -2 19 1 4 3 -2 6 -13 5 -11 0 -14 -3 -6 -6z"/>
<path d="M8993 9245 c0 -44 2 -61 4 -37 2 23 2 59 0 80 -2 20 -4 1 -4 -43z"/>
<path d="M9650 9130 c0 -19 11 -26 23 -14 8 8 -3 34 -14 34 -5 0 -9 -9 -9 -20z"/>
<path d="M6571 9013 c0 -25 1 -26 9 -8 12 27 12 35 0 35 -5 0 -10 -12 -9 -27z"/>
<path d="M8981 8924 c0 -11 3 -14 6 -6 3 7 2 16 -1 19 -3 4 -6 -2 -5 -13z"/>
<path d="M9991 8844 c0 -11 3 -14 6 -6 3 7 2 16 -1 19 -3 4 -6 -2 -5 -13z"/>
<path d="M9630 8660 c0 -5 7 -10 15 -10 8 0 15 5 15 10 0 6 -7 10 -15 10 -8 0
-15 -4 -15 -10z"/>
<path d="M8961 8414 c0 -11 3 -14 6 -6 3 7 2 16 -1 19 -3 4 -6 -2 -5 -13z"/>
<path d="M8962 8255 c0 -16 2 -22 5 -12 2 9 2 23 0 30 -3 6 -5 -1 -5 -18z"/>
<path d="M8962 8185 c0 -16 2 -22 5 -12 2 9 2 23 0 30 -3 6 -5 -1 -5 -18z"/>
<path d="M8072 7845 c1 -5 -4 -32 -11 -59 -12 -41 -12 -52 -1 -70 9 -13 16
-65 20 -141 l5 -120 8 139 c10 194 9 219 -8 242 -8 10 -14 15 -13 9z"/>
<path d="M9927 7812 c-9 -32 -10 -34 -45 -27 -21 4 -52 16 -71 28 l-34 20 -18
-22 c-20 -25 -22 -34 -19 -96 3 -54 7 -58 38 -35 36 26 112 42 129 28 8 -6 14
-36 14 -77 l2 -66 9 85 c5 47 7 110 6 140 -3 52 -3 53 -11 22z"/>
<path d="M6755 7821 c-3 -5 -7 -23 -9 -39 -2 -22 0 -29 10 -25 8 3 14 20 14
39 0 34 -4 42 -15 25z"/>
<path d="M7881 7802 c-11 -25 -11 -39 -2 -58 6 -14 11 -39 12 -57 l1 -32 9 38
c5 20 5 61 1 90 l-7 52 -14 -33z"/>
<path d="M8683 7765 c0 -22 2 -30 4 -17 2 12 2 30 0 40 -3 9 -5 -1 -4 -23z"/>
<path d="M9590 7750 c0 -5 5 -10 10 -10 6 0 10 5 10 10 0 6 -4 10 -10 10 -5 0
-10 -4 -10 -10z"/>
<path d="M7991 7714 c0 -11 3 -14 6 -6 3 7 2 16 -1 19 -3 4 -6 -2 -5 -13z"/>
<path d="M7884 7170 c0 -58 1 -81 3 -52 2 28 2 76 0 105 -2 28 -3 5 -3 -53z"/>
<path d="M8891 7184 c0 -11 3 -14 6 -6 3 7 2 16 -1 19 -3 4 -6 -2 -5 -13z"/>
<path d="M8892 6990 c0 -19 2 -27 5 -17 2 9 2 25 0 35 -3 9 -5 1 -5 -18z"/>
<path d="M10071 6994 c0 -11 3 -14 6 -6 3 7 2 16 -1 19 -3 4 -6 -2 -5 -13z"/>
<path d="M10332 9020 c0 -14 2 -19 5 -12 2 6 2 18 0 25 -3 6 -5 1 -5 -13z"/>
<path d="M7506 3054 c-4 -11 -1 -14 11 -12 9 2 18 9 21 16 6 18 -25 15 -32 -4z"/>
<path d="M7460 2889 c0 -5 5 -7 10 -4 6 3 10 8 10 11 0 2 -4 4 -10 4 -5 0 -10
-5 -10 -11z"/>
<path d="M6620 2836 c0 -8 5 -18 10 -21 6 -3 10 3 10 14 0 12 -4 21 -10 21 -5
0 -10 -6 -10 -14z"/>
<path d="M6885 2698 c-8 -28 -16 -109 -11 -117 9 -13 46 -1 46 15 0 8 -9 14
-20 14 -11 0 -20 5 -20 11 0 6 9 9 20 6 29 -8 34 9 8 28 -21 15 -22 17 -5 26
9 6 15 14 12 20 -9 13 -25 11 -30 -3z"/>
<path d="M6800 2619 c0 -5 5 -7 10 -4 6 3 10 8 10 11 0 2 -4 4 -10 4 -5 0 -10
-5 -10 -11z"/>
<path d="M6810 2580 c0 -5 6 -10 14 -10 8 0 18 5 21 10 3 6 -3 10 -14 10 -12
0 -21 -4 -21 -10z"/>
<path d="M6878 2553 c7 -3 16 -2 19 1 4 3 -2 6 -13 5 -11 0 -14 -3 -6 -6z"/>
<path d="M7185 2540 c3 -5 8 -10 11 -10 2 0 4 5 4 10 0 6 -5 10 -11 10 -5 0
-7 -4 -4 -10z"/>
<path d="M7180 2453 c-14 -14 -19 -24 -11 -22 13 5 49 49 40 49 -2 0 -15 -12
-29 -27z"/>
<path d="M7570 4092 c0 -5 7 -15 15 -22 8 -7 15 -8 15 -2 0 5 -7 15 -15 22 -8
7 -15 8 -15 2z"/>
<path d="M10590 2503 c0 -24 17 -49 27 -40 4 5 1 12 -6 16 -9 6 -10 11 -2 15
16 10 14 26 -4 26 -8 0 -15 -8 -15 -17z"/>
<path d="M10631 2484 c0 -11 3 -14 6 -6 3 7 2 16 -1 19 -3 4 -6 -2 -5 -13z"/>
<path d="M10630 1585 c0 -8 7 -15 15 -15 8 0 15 4 15 9 0 5 -7 11 -15 15 -9 3
-15 0 -15 -9z"/>
<path d="M10700 1580 c0 -5 7 -10 16 -10 8 0 12 5 9 10 -3 6 -10 10 -16 10 -5
0 -9 -4 -9 -10z"/>
<path d="M10610 1534 c0 -8 5 -12 10 -9 6 4 8 11 5 16 -9 14 -15 11 -15 -7z"/>
<path d="M12560 1140 c0 -5 5 -10 11 -10 5 0 7 5 4 10 -3 6 -8 10 -11 10 -2 0
-4 -4 -4 -10z"/>
<path d="M10690 1109 c0 -5 5 -7 10 -4 6 3 10 8 10 11 0 2 -4 4 -10 4 -5 0
-10 -5 -10 -11z"/>
<path d="M12564 992 c-13 -8 -29 -68 -25 -94 1 -9 -5 -33 -14 -53 -8 -21 -15
-47 -15 -59 0 -11 -12 -43 -25 -71 -14 -27 -25 -61 -25 -75 0 -19 -2 -22 -10
-10 -8 12 -10 12 -16 -4 -4 -11 -2 -21 7 -27 22 -14 26 -11 33 19 11 45 48
165 62 197 7 17 17 57 23 90 6 32 16 64 21 69 20 20 8 34 -16 18z"/>
<path d="M12490 836 c0 -9 5 -16 10 -16 6 0 10 4 10 9 0 6 -4 13 -10 16 -5 3
-10 -1 -10 -9z"/>
<path d="M12430 540 c-8 -14 -8 -26 -2 -32 6 -6 12 0 16 17 9 35 1 43 -14 15z"/>
<path d="M12382 388 c-14 -14 -16 -38 -3 -38 8 0 23 41 17 47 -1 1 -8 -3 -14
-9z"/>
<path d="M12347 276 c-6 -16 2 -28 14 -20 12 7 11 34 0 34 -5 0 -11 -6 -14
-14z"/>
<path d="M12401 64 c0 -11 3 -14 6 -6 3 7 2 16 -1 19 -3 4 -6 -2 -5 -13z"/>
</g>
</svg>
