<svg id="visual" viewBox="0 0 900 600" width="900" height="600" xmlns="http://www.w3.org/2000/svg" xmlns:xlink="http://www.w3.org/1999/xlink" version="1.1"><rect x="0" y="0" width="900" height="600" fill="#ecd6b4"></rect><path d="M0 420L12.5 429.7C25 439.3 50 458.7 75 463.3C100 468 125 458 150 453C175 448 200 448 225 456C250 464 275 480 300 488C325 496 350 496 375 483.8C400 471.7 425 447.3 450 442.3C475 437.3 500 451.7 525 455C550 458.3 575 450.7 600 448.5C625 446.3 650 449.7 675 452.5C700 455.3 725 457.7 750 462.8C775 468 800 476 825 479.3C850 482.7 875 481.3 887.5 480.7L900 480L900 601L887.5 601C875 601 850 601 825 601C800 601 775 601 750 601C725 601 700 601 675 601C650 601 625 601 600 601C575 601 550 601 525 601C500 601 475 601 450 601C425 601 400 601 375 601C350 601 325 601 300 601C275 601 250 601 225 601C200 601 175 601 150 601C125 601 100 601 75 601C50 601 25 601 12.5 601L0 601Z" fill="#fd7e14" stroke-linecap="round" stroke-linejoin="miter"></path></svg>