<svg id="visual" viewBox="0 0 900 600" width="900" height="600" xmlns="http://www.w3.org/2000/svg" xmlns:xlink="http://www.w3.org/1999/xlink" version="1.1"><g stroke-width="1" stroke-linejoin="bevel"><path d="M404 318L502 310L423 234Z" fill="#e79a5b" stroke="#e79a5b"></path><path d="M502 310L470 178L423 234Z" fill="#f58934" stroke="#f58934"></path><path d="M404 318L523 393L502 310Z" fill="#e49d62" stroke="#e49d62"></path><path d="M502 310L591 220L470 178Z" fill="#e49d62" stroke="#e49d62"></path><path d="M597 362L593 277L502 310Z" fill="#f8862b" stroke="#f8862b"></path><path d="M312 217L300 273L423 234Z" fill="#ea9753" stroke="#ea9753"></path><path d="M423 234L300 273L404 318Z" fill="#f58934" stroke="#f58934"></path><path d="M404 318L376 416L523 393Z" fill="#f38d3c" stroke="#f38d3c"></path><path d="M300 273L376 416L404 318Z" fill="#fa8220" stroke="#fa8220"></path><path d="M366 87L312 217L423 234Z" fill="#fd7e14" stroke="#fd7e14"></path><path d="M593 277L591 220L502 310Z" fill="#f38d3c" stroke="#f38d3c"></path><path d="M523 393L597 362L502 310Z" fill="#e1a06a" stroke="#e1a06a"></path><path d="M593 277L707 220L591 220Z" fill="#f38d3c" stroke="#f38d3c"></path><path d="M518 64L366 87L470 178Z" fill="#ea9753" stroke="#ea9753"></path><path d="M470 178L366 87L423 234Z" fill="#fd7e14" stroke="#fd7e14"></path><path d="M591 220L518 64L470 178Z" fill="#e49d62" stroke="#e49d62"></path><path d="M696 429L676 333L597 362Z" fill="#f38d3c" stroke="#f38d3c"></path><path d="M597 362L676 333L593 277Z" fill="#f38d3c" stroke="#f38d3c"></path><path d="M591 220L611 82L518 64Z" fill="#fd7e14" stroke="#fd7e14"></path><path d="M306 523L402 510L376 416Z" fill="#f58934" stroke="#f58934"></path><path d="M376 416L402 510L523 393Z" fill="#fa8220" stroke="#fa8220"></path><path d="M523 393L625 493L597 362Z" fill="#fa8220" stroke="#fa8220"></path><path d="M209 323L261 418L300 273Z" fill="#f09044" stroke="#f09044"></path><path d="M300 273L261 418L376 416Z" fill="#ea9753" stroke="#ea9753"></path><path d="M402 510L536 501L523 393Z" fill="#fa8220" stroke="#fa8220"></path><path d="M177 233L209 323L300 273Z" fill="#f8862b" stroke="#f8862b"></path><path d="M177 233L300 273L312 217Z" fill="#ea9753" stroke="#ea9753"></path><path d="M337 0L303 76L366 87Z" fill="#ea9753" stroke="#ea9753"></path><path d="M366 87L303 76L312 217Z" fill="#ed934c" stroke="#ed934c"></path><path d="M707 220L611 82L591 220Z" fill="#e1a06a" stroke="#e1a06a"></path><path d="M676 333L707 220L593 277Z" fill="#f8862b" stroke="#f8862b"></path><path d="M536 501L625 493L523 393Z" fill="#f8862b" stroke="#f8862b"></path><path d="M209 323L220 431L261 418Z" fill="#ed934c" stroke="#ed934c"></path><path d="M261 418L306 523L376 416Z" fill="#fa8220" stroke="#fa8220"></path><path d="M176 82L177 233L312 217Z" fill="#e49d62" stroke="#e49d62"></path><path d="M118 431L186 519L220 431Z" fill="#f38d3c" stroke="#f38d3c"></path><path d="M220 431L306 523L261 418Z" fill="#fa8220" stroke="#fa8220"></path><path d="M402 510L480 600L536 501Z" fill="#e49d62" stroke="#e49d62"></path><path d="M536 501L601 600L625 493Z" fill="#ed934c" stroke="#ed934c"></path><path d="M625 493L696 429L597 362Z" fill="#f09044" stroke="#f09044"></path><path d="M676 333L782 278L707 220Z" fill="#fa8220" stroke="#fa8220"></path><path d="M567 0L488 0L518 64Z" fill="#f38d3c" stroke="#f38d3c"></path><path d="M518 64L488 0L366 87Z" fill="#e1a06a" stroke="#e1a06a"></path><path d="M488 0L386 0L366 87Z" fill="#e1a06a" stroke="#e1a06a"></path><path d="M386 0L337 0L366 87Z" fill="#ea9753" stroke="#ea9753"></path><path d="M303 76L176 82L312 217Z" fill="#f58934" stroke="#f58934"></path><path d="M611 82L567 0L518 64Z" fill="#f58934" stroke="#f58934"></path><path d="M661 0L567 0L611 82Z" fill="#fd7e14" stroke="#fd7e14"></path><path d="M363 600L480 600L402 510Z" fill="#e1a06a" stroke="#e1a06a"></path><path d="M316 600L363 600L306 523Z" fill="#e79a5b" stroke="#e79a5b"></path><path d="M306 523L363 600L402 510Z" fill="#e79a5b" stroke="#e79a5b"></path><path d="M796 430L782 278L676 333Z" fill="#fa8220" stroke="#fa8220"></path><path d="M707 220L724 68L611 82Z" fill="#f38d3c" stroke="#f38d3c"></path><path d="M161 0L176 82L303 76Z" fill="#f09044" stroke="#f09044"></path><path d="M625 493L718 498L696 429Z" fill="#e1a06a" stroke="#e1a06a"></path><path d="M696 429L796 430L676 333Z" fill="#ea9753" stroke="#ea9753"></path><path d="M713 600L718 498L625 493Z" fill="#fa8220" stroke="#fa8220"></path><path d="M211 600L316 600L306 523Z" fill="#ea9753" stroke="#ea9753"></path><path d="M784 125L724 68L707 220Z" fill="#f8862b" stroke="#f8862b"></path><path d="M480 600L601 600L536 501Z" fill="#fa8220" stroke="#fa8220"></path><path d="M220 431L186 519L306 523Z" fill="#f09044" stroke="#f09044"></path><path d="M118 431L220 431L209 323Z" fill="#e79a5b" stroke="#e79a5b"></path><path d="M724 68L661 0L611 82Z" fill="#fa8220" stroke="#fa8220"></path><path d="M66 270L209 323L177 233Z" fill="#e79a5b" stroke="#e79a5b"></path><path d="M66 270L118 431L209 323Z" fill="#ea9753" stroke="#ea9753"></path><path d="M117 121L92 225L177 233Z" fill="#f38d3c" stroke="#f38d3c"></path><path d="M815 184L784 125L707 220Z" fill="#fd7e14" stroke="#fd7e14"></path><path d="M724 68L811 0L661 0Z" fill="#e49d62" stroke="#e49d62"></path><path d="M176 82L117 121L177 233Z" fill="#e1a06a" stroke="#e1a06a"></path><path d="M718 498L796 430L696 429Z" fill="#e79a5b" stroke="#e79a5b"></path><path d="M782 278L815 184L707 220Z" fill="#e1a06a" stroke="#e1a06a"></path><path d="M900 211L815 184L782 278Z" fill="#f09044" stroke="#f09044"></path><path d="M0 284L66 270L0 224Z" fill="#e1a06a" stroke="#e1a06a"></path><path d="M92 225L66 270L177 233Z" fill="#e1a06a" stroke="#e1a06a"></path><path d="M96 600L211 600L186 519Z" fill="#e1a06a" stroke="#e1a06a"></path><path d="M186 519L211 600L306 523Z" fill="#fd7e14" stroke="#fd7e14"></path><path d="M337 0L161 0L303 76Z" fill="#f09044" stroke="#f09044"></path><path d="M176 82L130 0L117 121Z" fill="#e49d62" stroke="#e49d62"></path><path d="M718 498L816 521L796 430Z" fill="#e79a5b" stroke="#e79a5b"></path><path d="M601 600L713 600L625 493Z" fill="#ed934c" stroke="#ed934c"></path><path d="M0 500L92 496L118 431Z" fill="#f09044" stroke="#f09044"></path><path d="M118 431L92 496L186 519Z" fill="#ea9753" stroke="#ea9753"></path><path d="M161 0L130 0L176 82Z" fill="#f09044" stroke="#f09044"></path><path d="M0 224L66 270L92 225Z" fill="#e49d62" stroke="#e49d62"></path><path d="M774 600L816 521L718 498Z" fill="#f09044" stroke="#f09044"></path><path d="M796 430L900 316L782 278Z" fill="#fd7e14" stroke="#fd7e14"></path><path d="M900 401L900 316L796 430Z" fill="#f8862b" stroke="#f8862b"></path><path d="M815 184L900 77L784 125Z" fill="#f38d3c" stroke="#f38d3c"></path><path d="M0 224L92 225L117 121Z" fill="#e1a06a" stroke="#e1a06a"></path><path d="M66 270L0 361L118 431Z" fill="#e49d62" stroke="#e49d62"></path><path d="M713 600L774 600L718 498Z" fill="#e1a06a" stroke="#e1a06a"></path><path d="M0 90L0 224L117 121Z" fill="#ed934c" stroke="#ed934c"></path><path d="M900 316L900 211L782 278Z" fill="#ea9753" stroke="#ea9753"></path><path d="M784 125L811 0L724 68Z" fill="#f8862b" stroke="#f8862b"></path><path d="M0 284L0 361L66 270Z" fill="#f09044" stroke="#f09044"></path><path d="M900 77L811 0L784 125Z" fill="#fa8220" stroke="#fa8220"></path><path d="M900 499L796 430L816 521Z" fill="#fa8220" stroke="#fa8220"></path><path d="M900 499L900 401L796 430Z" fill="#ea9753" stroke="#ea9753"></path><path d="M92 496L96 600L186 519Z" fill="#f8862b" stroke="#f8862b"></path><path d="M0 500L96 600L92 496Z" fill="#fa8220" stroke="#fa8220"></path><path d="M130 0L0 90L117 121Z" fill="#f38d3c" stroke="#f38d3c"></path><path d="M900 211L900 77L815 184Z" fill="#e49d62" stroke="#e49d62"></path><path d="M900 600L900 499L816 521Z" fill="#e79a5b" stroke="#e79a5b"></path><path d="M0 361L0 500L118 431Z" fill="#e79a5b" stroke="#e79a5b"></path><path d="M900 77L900 0L811 0Z" fill="#e1a06a" stroke="#e1a06a"></path><path d="M130 0L0 0L0 90Z" fill="#f58934" stroke="#f58934"></path><path d="M774 600L900 600L816 521Z" fill="#ea9753" stroke="#ea9753"></path><path d="M0 500L0 600L96 600Z" fill="#f38d3c" stroke="#f38d3c"></path></g></svg>